<?xml version="1.0" encoding="UTF-8"?>
<svg version="1.1" xmlns="http://www.w3.org/2000/svg" width="512" height="512">
<path d="M0 0 C0.8382431 -0.00852997 1.67648621 -0.01705994 2.54013062 -0.02584839 C3.90703033 -0.02448883 3.90703033 -0.02448883 5.30154419 -0.02310181 C6.7509993 -0.03317764 6.7509993 -0.03317764 8.22973633 -0.04345703 C11.42576228 -0.06246289 14.62157852 -0.06636253 17.81765747 -0.06851196 C20.03959235 -0.07493801 22.26152638 -0.08166623 24.48345947 -0.08868408 C29.14224204 -0.10066328 33.80095043 -0.10436423 38.45974731 -0.10317993 C44.42745697 -0.10297669 50.39469068 -0.13028151 56.36228752 -0.16472435 C60.95196719 -0.18696898 65.54153186 -0.19101822 70.13125992 -0.18996048 C72.3312761 -0.19232 74.53129528 -0.20116323 76.73125839 -0.21662521 C79.80971292 -0.23623563 82.8871353 -0.23046618 85.96560669 -0.21841431 C87.32643372 -0.23527283 87.32643372 -0.23527283 88.7147522 -0.25247192 C94.19388743 -0.19800424 97.49162115 0.49420621 101.76296997 4.26742554 C103.48893092 7.10203439 104.01435255 9.21164998 104.02366638 12.51118469 C104.03075119 13.35087296 104.037836 14.19056122 104.0451355 15.05569458 C104.04265808 15.9685321 104.04018066 16.88136963 104.03762817 17.8218689 C104.04529457 19.27373344 104.04529457 19.27373344 104.05311584 20.75492859 C104.06702057 23.95577165 104.06605443 27.15639961 104.06375122 30.35726929 C104.06763759 32.58159973 104.07197214 34.80592944 104.07673645 37.03025818 C104.08420051 41.69324143 104.08390596 46.35614897 104.0786438 51.01913452 C104.07284819 56.99583485 104.08978168 62.97222538 104.11298847 68.94887447 C104.12771704 73.542799 104.12859871 78.13664877 104.12547874 82.73059273 C104.12599237 84.93421607 104.13123783 87.13784355 104.14129066 89.34144402 C104.15362087 92.42236364 104.14688369 95.50267778 104.13528442 98.58358765 C104.14292816 99.49440094 104.1505719 100.40521423 104.15844727 101.34362793 C104.1184614 106.14643892 103.88650584 109.36489594 100.76296997 113.26742554 C97.7940818 115.57656078 94.64718183 115.56408007 90.95828247 115.72836304 C85.11715168 114.50193344 80.74992355 109.53056389 76.70828247 105.40805054 C76.16187103 104.8588092 75.61545959 104.30956787 75.05249023 103.74368286 C73.32618692 102.00627762 71.60700979 100.26201475 69.88796997 98.51742554 C68.71135258 97.33076544 67.53427358 96.14456285 66.35671997 94.95883179 C63.48677352 92.06695765 60.62319234 89.16891637 57.76296997 86.26742554 C54.90764932 87.56464717 52.84951245 88.93194364 50.63817215 91.14892101 C50.0429643 91.74076347 49.44775645 92.33260592 48.834512 92.94238299 C48.19015911 93.59324368 47.54580622 94.24410437 46.88192749 94.91468811 C45.84396188 95.9511488 45.84396188 95.9511488 44.78502727 97.00854808 C42.46202369 99.33059727 40.14625133 101.65972722 37.83035278 103.98886108 C36.16832423 105.6530904 34.50584786 107.31687261 32.84295654 108.98023987 C29.2594671 112.56666584 25.67916143 116.15623011 22.10126495 119.7482357 C16.92005482 124.94981108 11.73316781 130.1456984 6.54454407 135.33987794 C-1.88440844 143.77808842 -10.30925244 152.22038802 -18.73117065 160.6656189 C-19.48723669 161.4237749 -19.48723669 161.4237749 -20.25857678 162.19724718 C-20.76322456 162.70329049 -21.26787234 163.2093338 -21.78781247 163.73071176 C-28.93131834 170.89395643 -36.07577288 178.05625306 -43.22140503 185.21737671 C-43.72362016 185.72068269 -44.22583529 186.22398867 -44.74326906 186.74254634 C-53.13092999 195.14825961 -61.52064238 203.55192338 -69.91140103 211.95454437 C-75.54178724 217.59317611 -81.16920258 223.23475787 -86.79442549 228.87854135 C-90.30044718 232.39523216 -93.80851971 235.90987192 -97.31709671 239.42401314 C-98.9400964 241.05047353 -100.56222415 242.67780456 -102.1833992 244.30608368 C-104.40261931 246.53481094 -106.62496113 248.76038037 -108.84805298 250.98524475 C-109.48348298 251.62495183 -110.11891298 252.26465891 -110.77359843 252.92375106 C-114.56170089 256.70711462 -118.47181089 260.29229924 -122.53138757 263.78321582 C-124.49271454 265.48991615 -126.32547069 267.28479998 -128.12374878 269.16195679 C-128.75216675 269.80713257 -129.38058472 270.45230835 -130.02804565 271.11703491 C-131.3077912 272.44159132 -132.58375423 273.76981133 -133.85617065 275.10140991 C-139.01431897 280.37666789 -142.52091091 282.38702591 -150.07687378 282.72836304 C-156.43062152 281.37259046 -161.23492155 275.54427761 -165.61935425 271.1121521 C-166.33224106 270.39955734 -167.04512787 269.68696259 -167.77961731 268.95277405 C-170.12175924 266.60924496 -172.45674775 264.25872382 -174.79171753 261.90805054 C-176.4193828 260.27665297 -178.0474918 258.64569801 -179.67602539 257.01516724 C-183.95147255 252.73210077 -188.22087818 248.44306116 -192.48904419 244.15274048 C-196.84931605 239.77197357 -201.21528771 235.39689537 -205.58078003 231.02133179 C-214.13844445 222.44224749 -222.68973574 213.85684072 -231.23703003 205.26742554 C-234.0591151 206.55211791 -236.10409306 207.88787199 -238.28372192 210.08706665 C-238.85823593 210.66172165 -239.43274994 211.23637665 -240.02467346 211.82844543 C-240.64292496 212.45702957 -241.26117645 213.08561371 -241.89816284 213.73324585 C-242.55889297 214.39689651 -243.21962311 215.06054718 -243.90037537 215.74430847 C-245.33379222 217.18533203 -246.76489395 218.62866137 -248.19394684 220.07401276 C-250.46007684 222.365697 -252.73241939 224.65105204 -255.00650024 226.93484497 C-260.65649504 232.61157132 -266.29566736 238.29901001 -271.93508911 243.98623657 C-276.69652692 248.78724675 -281.46210792 253.58407154 -286.2332077 258.37548065 C-288.46400217 260.61917417 -290.68864772 262.86884237 -292.91311646 265.11880493 C-294.29455039 266.50751109 -295.67626995 267.8959332 -297.05831909 269.2840271 C-297.66847366 269.90451431 -298.27862823 270.52500153 -298.90727234 271.16429138 C-309.11379918 281.37327477 -309.11379918 281.37327477 -315.14328003 283.09945679 C-315.99921753 283.09301147 -316.85515503 283.08656616 -317.73703003 283.07992554 C-318.59296753 283.10699585 -319.44890503 283.13406616 -320.33078003 283.16195679 C-324.93482032 281.74485299 -327.82085288 278.56904778 -331.23703003 275.26742554 C-331.93747437 274.59880493 -332.6379187 273.93018433 -333.35958862 273.24130249 C-335.4856069 271.18690106 -337.58305936 269.10694702 -339.67453003 267.01742554 C-340.39318237 266.31101929 -341.11183472 265.60461304 -341.8522644 264.87680054 C-342.534823 264.19617554 -343.21738159 263.51555054 -343.92062378 262.81430054 C-344.84186035 261.89922729 -344.84186035 261.89922729 -345.78170776 260.96566772 C-348.49408812 257.80054144 -348.40462571 254.51915379 -348.56515503 250.49789429 C-347.78121964 245.16900017 -344.66397688 241.31894838 -340.96166992 237.6111145 C-339.6537146 236.29046997 -339.6537146 236.29046997 -338.31933594 234.94314575 C-337.35601612 233.98565774 -336.39254045 233.02832651 -335.42892456 232.07113647 C-334.411355 231.04949827 -333.39442398 230.02722372 -332.37808228 229.00436401 C-329.62466491 226.23730394 -326.86188318 223.47977697 -324.09688044 220.72429943 C-321.20126078 217.83629007 -318.31298482 214.94095118 -315.42352295 212.04678345 C-310.57165748 207.1894653 -305.71351249 202.3384952 -300.85177612 197.49105835 C-295.23333688 191.88895384 -289.6257991 186.27611134 -284.0237838 180.65758681 C-279.20967325 175.8298585 -274.38973621 171.00800585 -269.56488883 166.19100785 C-266.68492732 163.31572006 -263.80702325 160.43845166 -260.9343605 157.55587006 C-258.23413063 154.84696831 -255.52665602 152.14552201 -252.81343842 149.44963074 C-251.8195896 148.45974516 -250.82827835 147.46730426 -249.83972549 146.47212982 C-248.48888489 145.11307828 -247.12785571 143.76417652 -245.76635742 142.415802 C-245.00793108 141.65850674 -244.24950474 140.90121147 -243.46809578 140.12096786 C-239.37623257 136.72149761 -235.65978113 136.04422333 -230.39718628 135.80648804 C-224.00475209 137.17051559 -219.17258946 143.05751693 -214.76290894 147.51449585 C-214.04026855 148.23684418 -213.31762817 148.9591925 -212.5730896 149.70343018 C-210.19848259 152.07942454 -207.83102822 154.46241244 -205.46359253 156.84555054 C-203.81350697 158.49936833 -202.16297774 160.15274354 -200.51202393 161.80569458 C-196.1773935 166.14794485 -191.84880409 170.4961687 -187.52145386 174.84567261 C-183.10085828 179.28676209 -178.674564 183.72216381 -174.24874878 188.15805054 C-165.57259546 196.85562468 -156.90281475 205.5595215 -148.23703003 214.26742554 C-143.28574683 210.30639897 -139.06563858 205.97434071 -134.82073802 201.26784205 C-128.58306799 194.38738224 -121.97668325 187.87552979 -115.40231323 181.31918335 C-113.94236606 179.85951892 -112.48264037 178.39963294 -111.02311707 176.93954468 C-107.09637649 173.01251951 -103.16658055 169.08856526 -99.23619103 165.1651926 C-95.11578235 161.05107412 -90.99824276 156.93408612 -86.88038635 152.81741333 C-79.09833126 145.03845495 -71.31373267 137.26204718 -63.52819651 129.48657298 C-54.65792174 120.62751113 -45.79051741 111.76557848 -36.92334235 102.90341425 C-18.6977435 84.68824216 -0.46857767 66.47664335 17.76296997 48.26742554 C15.92201525 44.27279067 13.2962529 41.57783278 10.16921997 38.54867554 C9.34822815 37.73904358 9.34822815 37.73904358 8.51065063 36.91305542 C6.76616438 35.19294149 5.01540875 33.47943453 3.26296997 31.76742554 C0.95510224 29.51280167 -1.34604389 27.25162538 -3.64328003 24.98617554 C-4.17352783 24.47252441 -4.70377563 23.95887329 -5.25009155 23.42965698 C-9.34376985 19.39073468 -11.09378601 17.07230017 -11.54953003 11.32992554 C-11.44449143 7.56954362 -10.67754552 5.23090863 -8.23703003 2.26742554 C-5.40502511 0.5538488 -3.29124361 0.01519548 0 0 Z " fill="#F4A460" transform="translate(378.2370300292969,29.732574462890625)"/>
<path d="M0 0 C0.06866302 40.75731579 0.12152722 81.51462405 0.15319599 122.27198613 C0.15694812 127.08350517 0.16083108 131.8950241 0.16479492 136.70654297 C0.16558185 137.66443183 0.16636878 138.62232069 0.16717956 139.60923648 C0.18023432 155.1202799 0.20388857 170.63128997 0.23145839 186.1423136 C0.25951061 202.0574448 0.27617587 217.97255853 0.28226548 233.88771343 C0.2863823 243.70861831 0.29938613 253.52942892 0.3237494 263.35030478 C0.33960431 270.08437766 0.34440091 276.81840178 0.34050413 283.55249196 C0.33858221 287.43800897 0.34153346 291.32336122 0.35761642 295.20884895 C0.37493307 299.42319453 0.36896189 303.63718943 0.36076355 307.8515625 C0.36950207 309.07725417 0.3782406 310.30294584 0.38724393 311.56577969 C0.35288278 318.08979885 -0.10960374 323.1074596 -3 329 C-7.11401837 333.01116791 -10.37451945 334.11826463 -16.01879883 334.16113281 C-17.04028519 334.17074036 -18.06177155 334.1803479 -19.11421204 334.19024658 C-20.76890755 334.1966214 -20.76890755 334.1966214 -22.45703125 334.203125 C-23.5927507 334.20882507 -24.72847015 334.21452515 -25.89860535 334.22039795 C-28.30356921 334.22984953 -30.70854604 334.23638256 -33.11352539 334.24023438 C-36.78750288 334.24993401 -40.4609196 334.28095426 -44.13476562 334.3125 C-46.47135084 334.31903072 -48.80794007 334.32428092 -51.14453125 334.328125 C-52.2415889 334.3404718 -53.33864655 334.3528186 -54.46894836 334.36553955 C-60.0479309 334.349299 -64.22977443 334.24636987 -69 331 C-72.57019868 327.14032575 -74.04778063 324.10513066 -74.32137299 318.89360428 C-74.36714965 318.05360107 -74.41292632 317.21359786 -74.46009016 316.34814 C-74.50560782 315.42479006 -74.55112548 314.50144011 -74.59802246 313.55010986 C-74.64897206 312.56858657 -74.69992166 311.58706327 -74.75241518 310.57579684 C-74.92099775 307.26857337 -75.08138274 303.96102487 -75.24023438 300.65332031 C-75.29689648 299.49601788 -75.35355858 298.33871544 -75.41193771 297.14634323 C-76.49531243 274.79387244 -77.18814575 252.43642066 -77.7093558 230.06455405 C-77.79543695 226.37890741 -77.88456174 222.69334022 -77.97558594 219.0078125 C-77.99364448 218.27449812 -78.01170302 217.54118375 -78.03030878 216.78564772 C-78.28971166 206.51871112 -78.71992344 196.27173097 -79.29086697 186.01758057 C-80.27548154 168.33239495 -80.92939283 150.66755468 -80.96875 132.953125 C-80.97093521 132.26603982 -80.97312041 131.57895463 -80.97537184 130.87104869 C-81.04219492 93.19442665 -75.71018996 64.43989918 -48.42590332 36.71502686 C-36.40014462 24.98051236 -23.49045939 14.17230616 -9.78674316 4.45062256 C-9.14070869 3.99100482 -8.49467422 3.53138709 -7.82906294 3.05784154 C-3.37846736 0 -3.37846736 0 0 0 Z " fill="#F4A460" transform="translate(432,148)"/>
<path d="M0 0 C0.09124951 29.45326325 0.16203823 58.90651981 0.20426132 88.35989473 C0.20926415 91.83709802 0.21444144 95.31430103 0.21972656 98.79150391 C0.2207758 99.48375267 0.22182505 100.17600144 0.22290608 100.88922743 C0.24031154 112.09817449 0.27184997 123.3070395 0.30861118 134.51593788 C0.34601678 146.01723243 0.36793562 157.51846925 0.37635398 169.01982343 C0.38157383 175.48001937 0.39386281 181.9400292 0.42292023 188.40016556 C0.45004105 194.47891948 0.45845161 200.55741035 0.45243073 206.63621902 C0.45353244 208.86871774 0.46150591 211.10122512 0.4768219 213.33367157 C0.49669715 216.37972397 0.49194767 219.4247807 0.48101807 222.47085571 C0.49266943 223.35607867 0.5043208 224.24130162 0.51632524 225.15334952 C0.46344708 230.59835323 -0.39176849 233.67172424 -4 238 C-9.39039024 243.04091091 -14.94859603 242.58236881 -21.93359375 242.53125 C-23.08489273 242.5350769 -24.23619171 242.53890381 -25.42237854 242.54284668 C-27.85231401 242.54556345 -30.28227884 242.53821886 -32.7121582 242.52148438 C-36.42140293 242.50009283 -40.12870634 242.52128593 -43.83789062 242.546875 C-46.20312926 242.5442313 -48.56836669 242.53910546 -50.93359375 242.53125 C-52.03795273 242.53934692 -53.14231171 242.54744385 -54.28013611 242.55578613 C-60.71248249 242.47789258 -64.8558135 241.99718062 -70 238 C-72.7193119 234.24789181 -73.46476514 231.31354016 -73.83853149 226.72634888 C-73.94544123 225.45911673 -74.05235096 224.19188457 -74.16250038 222.88625145 C-74.26519635 221.48691076 -74.36675229 220.08748604 -74.46728516 218.68798828 C-74.58127997 217.20524794 -74.69529089 215.72250885 -74.80931664 214.23977089 C-76.25079417 194.89267535 -77.06071884 175.51535718 -77.625 156.125 C-77.65344466 155.19593621 -77.68188932 154.26687243 -77.71119595 153.30965519 C-80.22678643 69.60406591 -80.22678643 69.60406591 -52.55282593 39.14730835 C-47.83895195 34.23986325 -42.83379653 29.7484858 -37.625 25.375 C-36.78026375 24.66433632 -35.9355275 23.95367264 -35.06519318 23.22147369 C-7.07904831 0 -7.07904831 0 0 0 Z " fill="#F4A460" transform="translate(339,240)"/>
<path d="M0 0 C3.58857191 1.33950057 5.89862697 3.63495433 8.05447096 6.76686913 C8.64310131 9.79585054 8.85774078 12.01851589 8.79618543 15.03406578 C8.8070503 16.25941287 8.8070503 16.25941287 8.81813467 17.50951445 C8.83500498 20.23918553 8.80909536 22.96673703 8.78323072 25.69631249 C8.78645052 27.65626396 8.79226856 29.61621264 8.80048841 31.57614952 C8.81502332 36.89455886 8.79208003 42.21221232 8.76162928 47.53053027 C8.73526318 53.09795358 8.74056063 58.66535376 8.74171156 64.23282677 C8.7389023 73.58341405 8.71286182 82.9337092 8.6719026 92.28420311 C8.62474037 103.09060417 8.60890787 113.8966852 8.61110926 124.70318174 C8.61313697 136.21178658 8.59230381 147.72026823 8.56476945 159.22883588 C8.55837977 162.54288394 8.55624648 165.85691208 8.5550527 169.17096573 C8.55203512 174.38229156 8.53368622 179.59334957 8.50355428 184.80458695 C8.4948048 186.71574058 8.49109802 188.62692505 8.49283689 190.53809792 C8.49431376 193.14991128 8.47729751 195.76097952 8.45560926 198.37268883 C8.46025507 199.12639588 8.46490087 199.88010293 8.46968746 200.65664959 C8.39906667 205.81753417 7.40493635 209.26559284 5.05447096 213.76686913 C0.87770633 217.73479552 -2.30755646 218.88506242 -7.98019701 218.92800194 C-9.00491106 218.93760948 -10.02962511 218.94721703 -11.0853911 218.95711571 C-12.1916585 218.96136559 -13.29792589 218.96561547 -14.43771654 218.96999413 C-15.57580767 218.9756942 -16.71389879 218.98139427 -17.88647753 218.98726708 C-20.29563758 218.99671792 -22.70481057 219.00325139 -25.11398607 219.0071035 C-28.79894841 219.01681227 -32.48335381 219.04783694 -36.16818529 219.07936913 C-38.50802573 219.0858989 -40.84787016 219.09114947 -43.18771654 219.09499413 C-44.28993548 219.10734093 -45.39215441 219.11968773 -46.52777392 219.13240868 C-47.55879229 219.12940758 -48.58981066 219.12640648 -49.65207201 219.12331444 C-50.55569475 219.12696007 -51.4593175 219.1306057 -52.39032274 219.1343618 C-57.1682336 218.44719723 -61.00399099 215.65559802 -63.9641543 211.86124665 C-66.29489362 206.88715486 -65.64456437 201.05724337 -65.60837084 195.67092186 C-65.61678963 194.22987853 -65.62731725 192.78884622 -65.63978869 191.34783226 C-65.66680011 187.44488772 -65.6621468 183.54258334 -65.65008813 179.63958675 C-65.64294916 176.37896396 -65.65146098 173.11845899 -65.65999353 169.85784543 C-65.67993276 162.16636029 -65.67438988 154.47518609 -65.65231615 146.78371483 C-65.62993772 138.85132056 -65.64757127 130.91973949 -65.68536544 122.98742199 C-65.71659669 116.17192961 -65.72451669 109.35668901 -65.71341169 102.541134 C-65.70692482 98.47255753 -65.70892579 94.40445061 -65.73273569 90.3359285 C-65.7539792 86.51143176 -65.7460233 82.6880837 -65.71564204 78.86365944 C-65.70931207 77.46122533 -65.71318202 76.0587021 -65.72805315 74.65633255 C-65.83143269 64.04688177 -65.83143269 64.04688177 -63.67009932 60.92404324 C-62.09533983 59.61757714 -62.09533983 59.61757714 -58.94552904 57.76686913 C-57.85675973 56.60726742 -56.79939526 55.41670663 -55.78805834 54.18898827 C-50.95480562 48.53302964 -45.69822628 43.29471528 -40.46506029 38.01296288 C-39.92484429 37.46742319 -39.38462828 36.92188351 -38.82804209 36.35981232 C-35.98015224 33.48542192 -33.12875538 30.61455883 -30.27487475 27.74611717 C-27.91789368 25.37569247 -25.56843847 22.99816292 -23.22507006 20.61428124 C-20.38156926 17.721654 -17.52616557 14.84131659 -14.6615687 11.96958405 C-13.57483474 10.87612437 -12.49237055 9.77840406 -11.41428858 8.67641312 C-9.91375293 7.14445353 -8.39841965 5.62881858 -6.87839037 4.11623436 C-6.02014162 3.24989876 -5.16189287 2.38356316 -4.27763659 1.49097496 C-1.94552904 -0.23313087 -1.94552904 -0.23313087 0 0 Z " fill="#F4A460" transform="translate(145.94552904367447,263.2331308722496)"/>
<path d="M0 0 C2.8754551 1.38211039 4.89737905 2.66694434 7.109375 4.97753906 C7.69098389 5.57866516 8.27259277 6.17979126 8.87182617 6.7991333 C9.49162354 7.44807556 10.1114209 8.09701782 10.75 8.765625 C12.09443517 10.14513275 13.43950853 11.52401876 14.78515625 12.90234375 C16.88711868 15.06582704 18.98413099 17.23341971 21.06982422 19.41259766 C34.83474997 34.15259529 34.83474997 34.15259529 53.546875 40.16796875 C54.94788091 40.17990914 56.34894379 40.18622166 57.75 40.1875 C58.78640625 40.20586914 58.78640625 40.20586914 59.84375 40.22460938 C60.87242187 40.22750977 60.87242187 40.22750977 61.921875 40.23046875 C62.53643555 40.23457764 63.15099609 40.23868652 63.78417969 40.24291992 C66.9695994 39.89370302 69.93071592 38.8992041 73 38 C73.16366628 56.63696147 73.28703159 75.2737767 73.3626852 93.91130829 C73.39874944 102.56546582 73.44790002 111.21917632 73.52807617 119.87304688 C73.59794084 127.41754985 73.64302973 134.96172901 73.65861946 142.5065465 C73.66772989 146.50008776 73.68907377 150.49270285 73.7401104 154.48594666 C73.78780985 158.24875108 73.80224457 162.01025263 73.79175377 165.77333069 C73.79458222 167.80446032 73.83215668 169.83544966 73.87094116 171.86621094 C73.81341708 179.17511052 73.07296235 183.40953925 67.79628086 188.64899445 C64.63118349 191.02950421 61.80358123 191.13210192 57.98120117 191.16113281 C56.95971481 191.17074036 55.93822845 191.1803479 54.88578796 191.19024658 C53.23109245 191.1966214 53.23109245 191.1966214 51.54296875 191.203125 C50.4072493 191.20882507 49.27152985 191.21452515 48.10139465 191.22039795 C45.69643079 191.22984953 43.29145396 191.23638256 40.88647461 191.24023438 C37.21249712 191.24993401 33.5390804 191.28095426 29.86523438 191.3125 C27.52864916 191.31903072 25.19205993 191.32428092 22.85546875 191.328125 C21.7584111 191.3404718 20.66135345 191.3528186 19.53105164 191.36553955 C13.9520691 191.349299 9.77022557 191.24636987 5 188 C0.45308207 183.08441305 -0.14752997 179.28208937 -0.12025452 172.80574036 C-0.12110894 172.06813766 -0.12196337 171.33053496 -0.12284368 170.57058066 C-0.12449433 168.09235805 -0.11898388 165.61420273 -0.11352539 163.13598633 C-0.1132434 161.36216737 -0.11340148 159.5883483 -0.1139679 157.81452942 C-0.11425542 152.99253662 -0.10836592 148.17056858 -0.10139394 143.34858155 C-0.09515295 138.31170924 -0.09455601 133.2748364 -0.09336853 128.23796082 C-0.09025742 118.69699365 -0.08204698 109.1560379 -0.07201904 99.61507577 C-0.06085108 88.75427122 -0.05534573 77.89346613 -0.05032361 67.03265727 C-0.0398642 44.68843184 -0.022269 22.34421656 0 0 Z " fill="#F4A460" transform="translate(173,291)"/>
<path d="M0 0 C0.8382431 -0.00852997 1.67648621 -0.01705994 2.54013062 -0.02584839 C3.90703033 -0.02448883 3.90703033 -0.02448883 5.30154419 -0.02310181 C6.7509993 -0.03317764 6.7509993 -0.03317764 8.22973633 -0.04345703 C11.42576228 -0.06246289 14.62157852 -0.06636253 17.81765747 -0.06851196 C20.03959235 -0.07493801 22.26152638 -0.08166623 24.48345947 -0.08868408 C29.14224204 -0.10066328 33.80095043 -0.10436423 38.45974731 -0.10317993 C44.42745697 -0.10297669 50.39469068 -0.13028151 56.36228752 -0.16472435 C60.95196719 -0.18696898 65.54153186 -0.19101822 70.13125992 -0.18996048 C72.3312761 -0.19232 74.53129528 -0.20116323 76.73125839 -0.21662521 C79.80971292 -0.23623563 82.8871353 -0.23046618 85.96560669 -0.21841431 C87.32643372 -0.23527283 87.32643372 -0.23527283 88.7147522 -0.25247192 C94.19388743 -0.19800424 97.49162115 0.49420621 101.76296997 4.26742554 C103.48893092 7.10203439 104.01435255 9.21164998 104.02366638 12.51118469 C104.03075119 13.35087296 104.037836 14.19056122 104.0451355 15.05569458 C104.04265808 15.9685321 104.04018066 16.88136963 104.03762817 17.8218689 C104.04529457 19.27373344 104.04529457 19.27373344 104.05311584 20.75492859 C104.06702057 23.95577165 104.06605443 27.15639961 104.06375122 30.35726929 C104.06763759 32.58159973 104.07197214 34.80592944 104.07673645 37.03025818 C104.08420051 41.69324143 104.08390596 46.35614897 104.0786438 51.01913452 C104.07284819 56.99583485 104.08978168 62.97222538 104.11298847 68.94887447 C104.12771704 73.542799 104.12859871 78.13664877 104.12547874 82.73059273 C104.12599237 84.93421607 104.13123783 87.13784355 104.14129066 89.34144402 C104.15362087 92.42236364 104.14688369 95.50267778 104.13528442 98.58358765 C104.14292816 99.49440094 104.1505719 100.40521423 104.15844727 101.34362793 C104.1184614 106.14643892 103.88650584 109.36489594 100.76296997 113.26742554 C97.7940818 115.57656078 94.64718183 115.56408007 90.95828247 115.72836304 C85.11715168 114.50193344 80.74992355 109.53056389 76.70828247 105.40805054 C76.16187103 104.8588092 75.61545959 104.30956787 75.05249023 103.74368286 C73.32618692 102.00627762 71.60700979 100.26201475 69.88796997 98.51742554 C68.71135258 97.33076544 67.53427358 96.14456285 66.35671997 94.95883179 C63.48677352 92.06695765 60.62319234 89.16891637 57.76296997 86.26742554 C54.90764932 87.56464717 52.84951245 88.93194364 50.63817215 91.14892101 C50.0429643 91.74076347 49.44775645 92.33260592 48.834512 92.94238299 C48.19015911 93.59324368 47.54580622 94.24410437 46.88192749 94.91468811 C45.84396188 95.9511488 45.84396188 95.9511488 44.78502727 97.00854808 C42.46202369 99.33059727 40.14625133 101.65972722 37.83035278 103.98886108 C36.16832423 105.6530904 34.50584786 107.31687261 32.84295654 108.98023987 C29.2594671 112.56666584 25.67916143 116.15623011 22.10126495 119.7482357 C16.92005482 124.94981108 11.73316781 130.1456984 6.54454407 135.33987794 C-1.88440844 143.77808842 -10.30925244 152.22038802 -18.73117065 160.6656189 C-19.48723669 161.4237749 -19.48723669 161.4237749 -20.25857678 162.19724718 C-20.76322456 162.70329049 -21.26787234 163.2093338 -21.78781247 163.73071176 C-28.93131834 170.89395643 -36.07577288 178.05625306 -43.22140503 185.21737671 C-43.72362016 185.72068269 -44.22583529 186.22398867 -44.74326906 186.74254634 C-53.13092999 195.14825961 -61.52064238 203.55192338 -69.91140103 211.95454437 C-75.54178724 217.59317611 -81.16920258 223.23475787 -86.79442549 228.87854135 C-90.30044718 232.39523216 -93.80851971 235.90987192 -97.31709671 239.42401314 C-98.9400964 241.05047353 -100.56222415 242.67780456 -102.1833992 244.30608368 C-104.40261931 246.53481094 -106.62496113 248.76038037 -108.84805298 250.98524475 C-109.48348298 251.62495183 -110.11891298 252.26465891 -110.77359843 252.92375106 C-114.56170089 256.70711462 -118.47181089 260.29229924 -122.53138757 263.78321582 C-124.49271454 265.48991615 -126.32547069 267.28479998 -128.12374878 269.16195679 C-128.75216675 269.80713257 -129.38058472 270.45230835 -130.02804565 271.11703491 C-131.3077912 272.44159132 -132.58375423 273.76981133 -133.85617065 275.10140991 C-139.01431897 280.37666789 -142.52091091 282.38702591 -150.07687378 282.72836304 C-156.43062152 281.37259046 -161.23492155 275.54427761 -165.61935425 271.1121521 C-166.33224106 270.39955734 -167.04512787 269.68696259 -167.77961731 268.95277405 C-170.12175924 266.60924496 -172.45674775 264.25872382 -174.79171753 261.90805054 C-176.4193828 260.27665297 -178.0474918 258.64569801 -179.67602539 257.01516724 C-183.95147255 252.73210077 -188.22087818 248.44306116 -192.48904419 244.15274048 C-196.84931605 239.77197357 -201.21528771 235.39689537 -205.58078003 231.02133179 C-214.13844445 222.44224749 -222.68973574 213.85684072 -231.23703003 205.26742554 C-234.0591151 206.55211791 -236.10409306 207.88787199 -238.28372192 210.08706665 C-238.85823593 210.66172165 -239.43274994 211.23637665 -240.02467346 211.82844543 C-240.64292496 212.45702957 -241.26117645 213.08561371 -241.89816284 213.73324585 C-242.55889297 214.39689651 -243.21962311 215.06054718 -243.90037537 215.74430847 C-245.33379222 217.18533203 -246.76489395 218.62866137 -248.19394684 220.07401276 C-250.46007684 222.365697 -252.73241939 224.65105204 -255.00650024 226.93484497 C-260.65649504 232.61157132 -266.29566736 238.29901001 -271.93508911 243.98623657 C-276.69652692 248.78724675 -281.46210792 253.58407154 -286.2332077 258.37548065 C-288.46400217 260.61917417 -290.68864772 262.86884237 -292.91311646 265.11880493 C-294.29455039 266.50751109 -295.67626995 267.8959332 -297.05831909 269.2840271 C-297.66847366 269.90451431 -298.27862823 270.52500153 -298.90727234 271.16429138 C-309.11379918 281.37327477 -309.11379918 281.37327477 -315.14328003 283.09945679 C-315.99921753 283.09301147 -316.85515503 283.08656616 -317.73703003 283.07992554 C-318.59296753 283.10699585 -319.44890503 283.13406616 -320.33078003 283.16195679 C-324.93482032 281.74485299 -327.82085288 278.56904778 -331.23703003 275.26742554 C-331.93747437 274.59880493 -332.6379187 273.93018433 -333.35958862 273.24130249 C-335.4856069 271.18690106 -337.58305936 269.10694702 -339.67453003 267.01742554 C-340.39318237 266.31101929 -341.11183472 265.60461304 -341.8522644 264.87680054 C-342.534823 264.19617554 -343.21738159 263.51555054 -343.92062378 262.81430054 C-344.84186035 261.89922729 -344.84186035 261.89922729 -345.78170776 260.96566772 C-348.49408812 257.80054144 -348.40462571 254.51915379 -348.56515503 250.49789429 C-347.78121964 245.16900017 -344.66397688 241.31894838 -340.96166992 237.6111145 C-339.6537146 236.29046997 -339.6537146 236.29046997 -338.31933594 234.94314575 C-337.35601612 233.98565774 -336.39254045 233.02832651 -335.42892456 232.07113647 C-334.411355 231.04949827 -333.39442398 230.02722372 -332.37808228 229.00436401 C-329.62466491 226.23730394 -326.86188318 223.47977697 -324.09688044 220.72429943 C-321.20126078 217.83629007 -318.31298482 214.94095118 -315.42352295 212.04678345 C-310.57165748 207.1894653 -305.71351249 202.3384952 -300.85177612 197.49105835 C-295.23333688 191.88895384 -289.6257991 186.27611134 -284.0237838 180.65758681 C-279.20967325 175.8298585 -274.38973621 171.00800585 -269.56488883 166.19100785 C-266.68492732 163.31572006 -263.80702325 160.43845166 -260.9343605 157.55587006 C-258.23413063 154.84696831 -255.52665602 152.14552201 -252.81343842 149.44963074 C-251.8195896 148.45974516 -250.82827835 147.46730426 -249.83972549 146.47212982 C-248.48888489 145.11307828 -247.12785571 143.76417652 -245.76635742 142.415802 C-245.00793108 141.65850674 -244.24950474 140.90121147 -243.46809578 140.12096786 C-239.37623257 136.72149761 -235.65978113 136.04422333 -230.39718628 135.80648804 C-224.00475209 137.17051559 -219.17258946 143.05751693 -214.76290894 147.51449585 C-214.04026855 148.23684418 -213.31762817 148.9591925 -212.5730896 149.70343018 C-210.19848259 152.07942454 -207.83102822 154.46241244 -205.46359253 156.84555054 C-203.81350697 158.49936833 -202.16297774 160.15274354 -200.51202393 161.80569458 C-196.1773935 166.14794485 -191.84880409 170.4961687 -187.52145386 174.84567261 C-183.10085828 179.28676209 -178.674564 183.72216381 -174.24874878 188.15805054 C-165.57259546 196.85562468 -156.90281475 205.5595215 -148.23703003 214.26742554 C-143.28574683 210.30639897 -139.06563858 205.97434071 -134.82073802 201.26784205 C-128.58306799 194.38738224 -121.97668325 187.87552979 -115.40231323 181.31918335 C-113.94236606 179.85951892 -112.48264037 178.39963294 -111.02311707 176.93954468 C-107.09637649 173.01251951 -103.16658055 169.08856526 -99.23619103 165.1651926 C-95.11578235 161.05107412 -90.99824276 156.93408612 -86.88038635 152.81741333 C-79.09833126 145.03845495 -71.31373267 137.26204718 -63.52819651 129.48657298 C-54.65792174 120.62751113 -45.79051741 111.76557848 -36.92334235 102.90341425 C-18.6977435 84.68824216 -0.46857767 66.47664335 17.76296997 48.26742554 C15.92201525 44.27279067 13.2962529 41.57783278 10.16921997 38.54867554 C9.34822815 37.73904358 9.34822815 37.73904358 8.51065063 36.91305542 C6.76616438 35.19294149 5.01540875 33.47943453 3.26296997 31.76742554 C0.95510224 29.51280167 -1.34604389 27.25162538 -3.64328003 24.98617554 C-4.17352783 24.47252441 -4.70377563 23.95887329 -5.25009155 23.42965698 C-9.34376985 19.39073468 -11.09378601 17.07230017 -11.54953003 11.32992554 C-11.44449143 7.56954362 -10.67754552 5.23090863 -8.23703003 2.26742554 C-5.40502511 0.5538488 -3.29124361 0.01519548 0 0 Z M-8.23703003 6.26742554 C-9.74592472 9.28521491 -9.73729279 10.89065191 -9.23703003 14.26742554 C-3.94973379 21.85555972 3.64806354 28.26623242 10.20046997 34.76742554 C11.32505327 35.88698186 12.44940402 37.00677183 13.57351685 38.12680054 C16.30066341 40.84304088 19.03092904 43.55610845 21.76296997 46.26742554 C20.47468214 49.09508899 19.12531081 51.15662572 16.93556404 53.35489368 C16.06592559 54.23513052 16.06592559 54.23513052 15.17871869 55.13314992 C14.54137543 55.76807809 13.90403218 56.40300626 13.24737549 57.05717468 C12.23224107 58.08016412 12.23224107 58.08016412 11.19659889 59.12382001 C8.92287404 61.41257205 6.64203081 63.69409384 4.3611145 65.97567749 C2.73146731 67.61294406 1.10222489 69.25061359 -0.52664185 70.88865662 C-4.955524 75.33950614 -9.39098312 79.78374427 -13.82832098 84.2261622 C-16.59764446 86.99912508 -19.36566423 89.77338259 -22.13324356 92.54808617 C-29.79397502 100.22827076 -37.45617055 107.90698203 -45.1251812 115.57890034 C-45.61572818 116.06963488 -46.10627515 116.56036943 -46.61168719 117.06597472 C-47.60615547 118.06080926 -48.60062503 119.05564251 -49.59509586 120.0504745 C-50.08875542 120.54431688 -50.58241499 121.03815926 -51.09103394 121.54696655 C-51.58529574 122.04140891 -52.07955755 122.53585127 -52.58879699 123.04527672 C-60.60757602 131.06760179 -68.61453503 139.10161302 -76.61638759 147.1408181 C-84.82905489 155.39151533 -93.05121362 163.63264815 -101.28254616 171.86472481 C-105.90524057 176.48821453 -110.5238181 181.11564824 -115.13271713 185.75289345 C-119.46374696 190.10996363 -123.80642602 194.45506657 -128.15854645 198.79106712 C-129.7576857 200.38838098 -131.35252174 201.99001578 -132.94280624 203.59614563 C-135.10639417 205.77997886 -137.28464272 207.94801585 -139.46746826 210.1125946 C-140.41679098 211.08171727 -140.41679098 211.08171727 -141.38529193 212.07041818 C-143.15794182 213.80916309 -143.15794182 213.80916309 -146.23703003 216.26742554 C-149.58746387 215.84114122 -151.18791695 214.68700809 -153.53842163 212.31333923 C-154.48459099 211.36902039 -154.48459099 211.36902039 -155.44987488 210.40562439 C-156.13051498 209.71105637 -156.81115509 209.01648834 -157.51242065 208.3008728 C-158.60093575 207.20819595 -158.60093575 207.20819595 -159.71144104 206.09344482 C-162.11227539 203.68030997 -164.50253658 201.2569606 -166.89328003 198.83383179 C-168.55869946 197.1577388 -170.2249297 195.4824511 -171.89193726 193.80793762 C-176.28282141 189.39424212 -180.66550659 184.97250503 -185.04568481 180.54818726 C-192.05565036 173.4681141 -199.0730075 166.39543905 -206.09962463 159.33189201 C-208.55471522 156.86007418 -211.00329618 154.38193404 -213.45150757 151.90330505 C-214.9546207 150.38973193 -216.45798446 148.87640766 -217.9616394 147.3633728 C-218.64227951 146.67082901 -219.32291962 145.97828522 -220.02418518 145.26475525 C-220.65496475 144.63238953 -221.28574432 144.0000238 -221.93563843 143.34849548 C-222.47983177 142.7985621 -223.02402512 142.24862871 -223.58470917 141.68203068 C-226.70984819 139.00649844 -229.38272745 137.90227013 -233.48703003 138.20492554 C-237.17943581 138.78117131 -239.17808788 139.7106373 -241.92359924 142.2335968 C-242.61597372 142.86787535 -243.3083482 143.50215389 -244.02170372 144.155653 C-248.06604878 148.01094818 -252.04846921 151.92279105 -256.00192261 155.8711853 C-256.95370106 156.81832341 -257.90567201 157.76526812 -258.8578186 158.71203613 C-261.41987806 161.26109963 -263.97870596 163.81338165 -266.5365088 166.36671567 C-268.1375254 167.96478493 -269.73912033 169.5622724 -271.34088707 171.15958977 C-276.36161223 176.16668321 -281.38036336 181.17574266 -286.39621621 186.18771702 C-292.17085915 191.95786849 -297.95200568 197.72139861 -303.73883134 203.47933155 C-308.22583715 207.94471417 -312.70705507 212.41585151 -317.18393058 216.89139026 C-319.85248251 219.55889604 -322.52339042 222.22393447 -325.20035744 224.88299751 C-327.7145766 227.38072159 -330.22151775 229.88552862 -332.72311401 232.3958931 C-334.07602043 233.74993447 -335.43634101 235.09655527 -336.79689026 236.44291687 C-343.61522964 243.28119304 -343.61522964 243.28119304 -346.67453003 252.26742554 C-345.58421347 259.74388194 -338.8045843 264.9696253 -333.67453003 270.01742554 C-332.90689331 270.78441772 -332.13925659 271.55140991 -331.34835815 272.34164429 C-325.68757381 278.43768015 -325.68757381 278.43768015 -318.04953003 280.76742554 C-309.50116547 280.45896152 -303.40219608 272.72304444 -297.7194519 266.97689819 C-297.01602661 266.27376495 -296.31260132 265.57063171 -295.58786011 264.84619141 C-293.28905426 262.54600429 -290.99739333 260.23883903 -288.70578003 257.93148804 C-287.10339455 256.32536815 -285.50056377 254.71969242 -283.89730835 253.11444092 C-279.6975056 248.90703542 -275.50374629 244.6936566 -271.31124878 240.47897339 C-267.02454237 236.17173599 -262.73210387 231.87021926 -258.44015503 227.56820679 C-250.03351731 219.14017844 -241.63325776 210.70582375 -233.23703003 202.26742554 C-230.30228026 203.59134787 -228.23665728 205.02202474 -225.97360229 207.30380249 C-225.04005417 208.2375621 -225.04005417 208.2375621 -224.08764648 209.19018555 C-223.41635712 209.87180756 -222.74506775 210.55342957 -222.05343628 211.25570679 C-221.33751312 211.97455048 -220.62158997 212.69339417 -219.88397217 213.434021 C-218.33104696 214.9945538 -216.78043654 216.55739275 -215.23187256 218.12225342 C-212.78199372 220.59764446 -210.32593375 223.06674674 -207.86813354 225.53427124 C-201.76567782 231.66348 -195.67411281 237.80347697 -189.5821228 243.94308472 C-184.43335726 249.13126801 -179.28055119 254.31537299 -174.12225342 259.49407959 C-171.70075178 261.92856321 -169.2853448 264.36898618 -166.87008667 266.80966187 C-165.38722865 268.29978423 -163.90408951 269.78962692 -162.42062378 271.27914429 C-161.74933441 271.9607663 -161.07804504 272.64238831 -160.38641357 273.34466553 C-159.76404816 273.96717194 -159.14168274 274.58967834 -158.50045776 275.23104858 C-157.96363876 275.77230881 -157.42681976 276.31356903 -156.87373352 276.87123108 C-153.75261679 279.53370837 -151.0792589 280.63169062 -146.98703003 280.32992554 C-141.20936634 279.51803162 -138.24002911 276.24737472 -134.23703003 272.26742554 C-132.72145904 270.94885251 -131.20051262 269.63643517 -129.67453003 268.32992554 C-126.88187509 265.92792555 -124.44579012 263.38863689 -122.05430508 260.59758759 C-118.45493439 256.4647792 -114.6722245 252.56514184 -110.78953552 248.69967651 C-110.07301644 247.982303 -109.35649735 247.26492949 -108.61826557 246.52581739 C-106.23777338 244.1436896 -103.85374608 241.76513282 -101.46969604 239.38656616 C-99.75418471 237.67133714 -98.03889403 235.95588742 -96.32380676 234.24023438 C-92.6416323 230.55783284 -88.95793817 226.87695895 -85.27282906 223.19749451 C-79.94489929 217.87772046 -74.61976019 212.55516003 -69.29528009 207.23193353 C-60.65485506 198.59369264 -52.01220309 189.95768342 -43.36813354 181.3230896 C-34.97535475 172.93950145 -26.58363555 164.55485499 -18.19332886 156.16879272 C-17.67543069 155.65115728 -17.15753253 155.13352184 -16.62394048 154.60020047 C-14.02558928 152.0031544 -11.4272588 149.4060876 -8.8289386 146.80901051 C12.69848839 125.29193625 34.22957397 103.77852635 55.76296997 82.26742554 C58.5410982 83.60802935 60.5864071 84.84615383 62.75564575 87.04891968 C63.3094693 87.60612198 63.86329285 88.16332428 64.43389893 88.7374115 C65.0194455 89.33641769 65.60499207 89.93542389 66.20828247 90.55258179 C67.12491165 91.47701332 67.12491165 91.47701332 68.06005859 92.42012024 C70.00751379 94.38535878 71.94813906 96.35716318 73.88796997 98.32992554 C75.83580598 100.30536829 77.78507743 102.27933905 79.73730469 104.2504425 C80.95094926 105.47635614 82.16191082 106.70493283 83.36993408 107.93638611 C87.29874771 112.07097999 87.29874771 112.07097999 92.57546997 113.57992554 C96.49373447 113.19578196 97.97590264 111.97486237 100.76296997 109.26742554 C102.47776345 105.83783858 101.91942138 101.89823287 101.92410278 98.12362671 C101.92906769 97.1755162 101.93403259 96.2274057 101.93914795 95.25056458 C101.95379174 92.10383385 101.96057549 88.95715354 101.96609497 85.81039429 C101.97184488 83.62804665 101.97760263 81.44569904 101.98336792 79.26335144 C101.99388441 74.68259444 101.99972274 70.10185503 102.00320435 65.52108765 C102.00868847 59.64972288 102.03271216 53.7785901 102.0611763 47.90729809 C102.07979552 43.39744894 102.08500792 38.88765572 102.08654022 34.37777138 C102.08956922 32.2132166 102.09760601 30.04866287 102.1107254 27.88414574 C102.12776964 24.85572016 102.12590941 21.82786197 102.11941528 18.79940796 C102.12863007 17.90415405 102.13784485 17.00890015 102.14733887 16.08651733 C102.11558838 11.36272844 101.96072612 8.02326678 98.76296997 4.26742554 C95.95067011 2.57758236 93.85916678 2.0153543 90.59513855 2 C89.77227859 1.99147003 88.94941864 1.98294006 88.10162354 1.97415161 C86.76041946 1.97551117 86.76041946 1.97551117 85.39212036 1.97689819 C83.96951653 1.96682236 83.96951653 1.96682236 82.51817322 1.95654297 C79.38227097 1.93754096 76.24658246 1.93363782 73.11062622 1.93148804 C70.93113619 1.92506226 68.75164702 1.91833406 66.57215881 1.91131592 C62.00333658 1.89933807 57.43459 1.89563568 52.86575317 1.89682007 C47.01004174 1.89702342 41.15481473 1.86970608 35.29921818 1.83527565 C30.79793568 1.81304533 26.29677054 1.80898132 21.79543877 1.81003952 C19.63646206 1.80767832 17.47748236 1.79882569 15.31855965 1.78337479 C12.2997651 1.76379099 9.28202545 1.76952293 6.26321411 1.78158569 C4.92504639 1.76472717 4.92504639 1.76472717 3.55984497 1.74752808 C-1.6350656 1.80030881 -4.5000197 2.291434 -8.23703003 6.26742554 Z " fill="#000000" transform="translate(378.2370300292969,29.732574462890625)"/>
<path d="M0 0 C0.06866302 40.75731579 0.12152722 81.51462405 0.15319599 122.27198613 C0.15694812 127.08350517 0.16083108 131.8950241 0.16479492 136.70654297 C0.16558185 137.66443183 0.16636878 138.62232069 0.16717956 139.60923648 C0.18023432 155.1202799 0.20388857 170.63128997 0.23145839 186.1423136 C0.25951061 202.0574448 0.27617587 217.97255853 0.28226548 233.88771343 C0.2863823 243.70861831 0.29938613 253.52942892 0.3237494 263.35030478 C0.33960431 270.08437766 0.34440091 276.81840178 0.34050413 283.55249196 C0.33858221 287.43800897 0.34153346 291.32336122 0.35761642 295.20884895 C0.37493307 299.42319453 0.36896189 303.63718943 0.36076355 307.8515625 C0.36950207 309.07725417 0.3782406 310.30294584 0.38724393 311.56577969 C0.35288278 318.08979885 -0.10960374 323.1074596 -3 329 C-7.11401837 333.01116791 -10.37451945 334.11826463 -16.01879883 334.16113281 C-17.04028519 334.17074036 -18.06177155 334.1803479 -19.11421204 334.19024658 C-20.76890755 334.1966214 -20.76890755 334.1966214 -22.45703125 334.203125 C-23.5927507 334.20882507 -24.72847015 334.21452515 -25.89860535 334.22039795 C-28.30356921 334.22984953 -30.70854604 334.23638256 -33.11352539 334.24023438 C-36.78750288 334.24993401 -40.4609196 334.28095426 -44.13476562 334.3125 C-46.47135084 334.31903072 -48.80794007 334.32428092 -51.14453125 334.328125 C-52.2415889 334.3404718 -53.33864655 334.3528186 -54.46894836 334.36553955 C-60.0479309 334.349299 -64.22977443 334.24636987 -69 331 C-72.57019868 327.14032575 -74.04778063 324.10513066 -74.32137299 318.89360428 C-74.36714965 318.05360107 -74.41292632 317.21359786 -74.46009016 316.34814 C-74.50560782 315.42479006 -74.55112548 314.50144011 -74.59802246 313.55010986 C-74.64897206 312.56858657 -74.69992166 311.58706327 -74.75241518 310.57579684 C-74.92099775 307.26857337 -75.08138274 303.96102487 -75.24023438 300.65332031 C-75.29689648 299.49601788 -75.35355858 298.33871544 -75.41193771 297.14634323 C-76.49531243 274.79387244 -77.18814575 252.43642066 -77.7093558 230.06455405 C-77.79543695 226.37890741 -77.88456174 222.69334022 -77.97558594 219.0078125 C-77.99364448 218.27449812 -78.01170302 217.54118375 -78.03030878 216.78564772 C-78.28971166 206.51871112 -78.71992344 196.27173097 -79.29086697 186.01758057 C-80.27548154 168.33239495 -80.92939283 150.66755468 -80.96875 132.953125 C-80.97093521 132.26603982 -80.97312041 131.57895463 -80.97537184 130.87104869 C-81.04219492 93.19442665 -75.71018996 64.43989918 -48.42590332 36.71502686 C-36.40014462 24.98051236 -23.49045939 14.17230616 -9.78674316 4.45062256 C-9.14070869 3.99100482 -8.49467422 3.53138709 -7.82906294 3.05784154 C-3.37846736 0 -3.37846736 0 0 0 Z M-47.03904724 38.52566528 C-74.47734859 66.34652583 -78.94421975 95.41729496 -78.87890625 133.1796875 C-78.87834463 133.85959924 -78.877783 134.53951099 -78.87720436 135.24002612 C-78.84659327 152.10709317 -78.21047544 168.93376475 -77.31057553 185.77459005 C-76.72887359 196.66511186 -76.3300282 207.54723073 -76.09204102 218.45068359 C-76.07617471 219.17534675 -76.0603084 219.9000099 -76.04396129 220.64663254 C-75.980796 223.56170122 -75.91881301 226.47679172 -75.85837737 229.39191829 C-75.39790822 251.55896909 -74.78028142 273.72317371 -73.714674 295.87012863 C-73.60558154 298.1632502 -73.50235722 300.45665961 -73.40544128 302.75032806 C-73.27068843 305.87865644 -73.11187138 309.00478517 -72.94532776 312.13156128 C-72.90991286 313.0368422 -72.87449797 313.94212312 -72.83800989 314.8748368 C-72.49212958 320.6415201 -71.32684489 324.24234697 -68 329 C-62.76290578 332.94228847 -56.93521436 332.43487745 -50.65234375 332.3984375 C-49.56288956 332.40130768 -48.47343536 332.40417786 -47.35096741 332.40713501 C-45.05387857 332.40917165 -42.75677222 332.4036699 -40.4597168 332.39111328 C-36.9460575 332.37503915 -33.43354578 332.39098433 -29.91992188 332.41015625 C-27.6848933 332.40817405 -25.44986544 332.40433086 -23.21484375 332.3984375 C-21.64125343 332.40754654 -21.64125343 332.40754654 -20.03587341 332.4168396 C-13.00831722 332.40217059 -13.00831722 332.40217059 -7 329 C-2.61485817 324.24942968 -1.87445385 320.88286272 -1.87695217 314.5571022 C-1.87496112 313.44490161 -1.87297007 312.33270102 -1.87091869 311.18679738 C-1.87383153 309.96501814 -1.87674437 308.74323889 -1.87974548 307.48443604 C-1.87889106 306.18653224 -1.87803663 304.88862844 -1.87715632 303.55139422 C-1.87491731 299.9461216 -1.87892455 296.34087861 -1.88393438 292.73560977 C-1.88824718 288.84879987 -1.88679186 284.96199168 -1.8860321 281.07518005 C-1.8855074 274.34010674 -1.88864865 267.60504311 -1.89426994 260.86997223 C-1.90239213 251.13215418 -1.9050009 241.39434081 -1.90625793 231.65651974 C-1.90844732 215.85808733 -1.91510434 200.05966008 -1.92456055 184.26123047 C-1.93373759 168.91324896 -1.940817 153.56526885 -1.94506836 138.21728516 C-1.94546244 136.7985451 -1.94546244 136.7985451 -1.94586449 135.35114363 C-1.94716952 130.60627559 -1.94843323 125.86140754 -1.94967639 121.11653948 C-1.96004548 81.74435604 -1.97766072 42.37217836 -2 3 C-14.7251359 3 -38.5258992 30.24065154 -47.03904724 38.52566528 Z " fill="#000000" transform="translate(432,148)"/>
<path d="M0 0 C0.09124951 29.45326325 0.16203823 58.90651981 0.20426132 88.35989473 C0.20926415 91.83709802 0.21444144 95.31430103 0.21972656 98.79150391 C0.2207758 99.48375267 0.22182505 100.17600144 0.22290608 100.88922743 C0.24031154 112.09817449 0.27184997 123.3070395 0.30861118 134.51593788 C0.34601678 146.01723243 0.36793562 157.51846925 0.37635398 169.01982343 C0.38157383 175.48001937 0.39386281 181.9400292 0.42292023 188.40016556 C0.45004105 194.47891948 0.45845161 200.55741035 0.45243073 206.63621902 C0.45353244 208.86871774 0.46150591 211.10122512 0.4768219 213.33367157 C0.49669715 216.37972397 0.49194767 219.4247807 0.48101807 222.47085571 C0.49266943 223.35607867 0.5043208 224.24130162 0.51632524 225.15334952 C0.46344708 230.59835323 -0.39176849 233.67172424 -4 238 C-9.39039024 243.04091091 -14.94859603 242.58236881 -21.93359375 242.53125 C-23.08489273 242.5350769 -24.23619171 242.53890381 -25.42237854 242.54284668 C-27.85231401 242.54556345 -30.28227884 242.53821886 -32.7121582 242.52148438 C-36.42140293 242.50009283 -40.12870634 242.52128593 -43.83789062 242.546875 C-46.20312926 242.5442313 -48.56836669 242.53910546 -50.93359375 242.53125 C-52.03795273 242.53934692 -53.14231171 242.54744385 -54.28013611 242.55578613 C-60.71248249 242.47789258 -64.8558135 241.99718062 -70 238 C-72.7193119 234.24789181 -73.46476514 231.31354016 -73.83853149 226.72634888 C-73.94544123 225.45911673 -74.05235096 224.19188457 -74.16250038 222.88625145 C-74.26519635 221.48691076 -74.36675229 220.08748604 -74.46728516 218.68798828 C-74.58127997 217.20524794 -74.69529089 215.72250885 -74.80931664 214.23977089 C-76.25079417 194.89267535 -77.06071884 175.51535718 -77.625 156.125 C-77.65344466 155.19593621 -77.68188932 154.26687243 -77.71119595 153.30965519 C-80.22678643 69.60406591 -80.22678643 69.60406591 -52.55282593 39.14730835 C-47.83895195 34.23986325 -42.83379653 29.7484858 -37.625 25.375 C-36.78026375 24.66433632 -35.9355275 23.95367264 -35.06519318 23.22147369 C-7.07904831 0 -7.07904831 0 0 0 Z M-37.0625 28 C-37.86802685 28.67157387 -38.6735537 29.34314774 -39.50349045 30.03507233 C-61.89228904 49.13103076 -72.69153754 69.59623075 -74.99479383 98.56080031 C-76.3178965 117.65125636 -76.09783839 136.76049026 -75.5625 155.875 C-75.51403126 157.73644985 -75.46557571 159.59790005 -75.41713333 161.45935059 C-75.07910909 173.91699848 -74.57032606 186.36165112 -73.87890625 198.8046875 C-73.83287891 199.63390764 -73.78685158 200.46312778 -73.73942947 201.3174758 C-73.46931732 206.06149189 -73.16363682 210.80121874 -72.80734432 215.53956223 C-72.70181012 216.9659649 -72.60307608 218.39289008 -72.51177323 219.82027435 C-72.19659955 228.30964851 -72.19659955 228.30964851 -68.64707947 235.76809692 C-64.65224715 239.136367 -62.27531599 240.24671184 -57.05126953 240.2746582 C-56.06990021 240.28419022 -55.08853088 240.29372223 -54.0774231 240.30354309 C-53.0232016 240.30263168 -51.9689801 240.30172028 -50.8828125 240.30078125 C-49.79290009 240.30506638 -48.70298767 240.3093515 -47.58004761 240.31376648 C-45.27521458 240.31950759 -42.97036344 240.32001166 -40.66552734 240.31567383 C-37.14519183 240.3125181 -33.62570012 240.33596197 -30.10546875 240.36132812 C-27.86458439 240.3636016 -25.62369778 240.36430439 -23.3828125 240.36328125 C-22.33263947 240.372491 -21.28246643 240.38170074 -20.20046997 240.39118958 C-14.72080073 240.35663189 -10.70796759 240.14071877 -6 237 C-1.61181762 232.15786772 -1.85888608 227.29404549 -1.87974548 221.05940247 C-1.87889106 220.13395636 -1.87803663 219.20851025 -1.87715632 218.25502032 C-1.87550374 215.14110414 -1.88101929 212.02724133 -1.88647461 208.91333008 C-1.88675655 206.68631491 -1.8865986 204.45929966 -1.8860321 202.23228455 C-1.88574442 196.17479604 -1.89163654 190.11732722 -1.89860606 184.0598433 C-1.90484436 177.73371877 -1.90544378 171.40759381 -1.90663147 165.08146667 C-1.9093895 154.45966205 -1.91564176 143.83786522 -1.92456055 133.21606445 C-1.93373788 122.27498409 -1.94081715 111.3339057 -1.94506836 100.39282227 C-1.94546244 99.38141302 -1.94546244 99.38141302 -1.94586449 98.34957127 C-1.94716952 94.96698308 -1.94843323 91.58439488 -1.94967639 88.20180666 C-1.96004513 60.13453274 -1.97773434 32.06726682 -2 4 C-12.40342685 4 -29.57375696 21.75076671 -37.0625 28 Z " fill="#000000" transform="translate(339,240)"/>
<path d="M0 0 C3.58857191 1.33950057 5.89862697 3.63495433 8.05447096 6.76686913 C8.64310131 9.79585054 8.85774078 12.01851589 8.79618543 15.03406578 C8.8070503 16.25941287 8.8070503 16.25941287 8.81813467 17.50951445 C8.83500498 20.23918553 8.80909536 22.96673703 8.78323072 25.69631249 C8.78645052 27.65626396 8.79226856 29.61621264 8.80048841 31.57614952 C8.81502332 36.89455886 8.79208003 42.21221232 8.76162928 47.53053027 C8.73526318 53.09795358 8.74056063 58.66535376 8.74171156 64.23282677 C8.7389023 73.58341405 8.71286182 82.9337092 8.6719026 92.28420311 C8.62474037 103.09060417 8.60890787 113.8966852 8.61110926 124.70318174 C8.61313697 136.21178658 8.59230381 147.72026823 8.56476945 159.22883588 C8.55837977 162.54288394 8.55624648 165.85691208 8.5550527 169.17096573 C8.55203512 174.38229156 8.53368622 179.59334957 8.50355428 184.80458695 C8.4948048 186.71574058 8.49109802 188.62692505 8.49283689 190.53809792 C8.49431376 193.14991128 8.47729751 195.76097952 8.45560926 198.37268883 C8.46025507 199.12639588 8.46490087 199.88010293 8.46968746 200.65664959 C8.39906667 205.81753417 7.40493635 209.26559284 5.05447096 213.76686913 C0.87770633 217.73479552 -2.30755646 218.88506242 -7.98019701 218.92800194 C-9.00491106 218.93760948 -10.02962511 218.94721703 -11.0853911 218.95711571 C-12.1916585 218.96136559 -13.29792589 218.96561547 -14.43771654 218.96999413 C-15.57580767 218.9756942 -16.71389879 218.98139427 -17.88647753 218.98726708 C-20.29563758 218.99671792 -22.70481057 219.00325139 -25.11398607 219.0071035 C-28.79894841 219.01681227 -32.48335381 219.04783694 -36.16818529 219.07936913 C-38.50802573 219.0858989 -40.84787016 219.09114947 -43.18771654 219.09499413 C-44.28993548 219.10734093 -45.39215441 219.11968773 -46.52777392 219.13240868 C-47.55879229 219.12940758 -48.58981066 219.12640648 -49.65207201 219.12331444 C-50.55569475 219.12696007 -51.4593175 219.1306057 -52.39032274 219.1343618 C-57.1682336 218.44719723 -61.00399099 215.65559802 -63.9641543 211.86124665 C-66.29489362 206.88715486 -65.64456437 201.05724337 -65.60837084 195.67092186 C-65.61678963 194.22987853 -65.62731725 192.78884622 -65.63978869 191.34783226 C-65.66680011 187.44488772 -65.6621468 183.54258334 -65.65008813 179.63958675 C-65.64294916 176.37896396 -65.65146098 173.11845899 -65.65999353 169.85784543 C-65.67993276 162.16636029 -65.67438988 154.47518609 -65.65231615 146.78371483 C-65.62993772 138.85132056 -65.64757127 130.91973949 -65.68536544 122.98742199 C-65.71659669 116.17192961 -65.72451669 109.35668901 -65.71341169 102.541134 C-65.70692482 98.47255753 -65.70892579 94.40445061 -65.73273569 90.3359285 C-65.7539792 86.51143176 -65.7460233 82.6880837 -65.71564204 78.86365944 C-65.70931207 77.46122533 -65.71318202 76.0587021 -65.72805315 74.65633255 C-65.83143269 64.04688177 -65.83143269 64.04688177 -63.67009932 60.92404324 C-62.09533983 59.61757714 -62.09533983 59.61757714 -58.94552904 57.76686913 C-57.85675973 56.60726742 -56.79939526 55.41670663 -55.78805834 54.18898827 C-50.95480562 48.53302964 -45.69822628 43.29471528 -40.46506029 38.01296288 C-39.92484429 37.46742319 -39.38462828 36.92188351 -38.82804209 36.35981232 C-35.98015224 33.48542192 -33.12875538 30.61455883 -30.27487475 27.74611717 C-27.91789368 25.37569247 -25.56843847 22.99816292 -23.22507006 20.61428124 C-20.38156926 17.721654 -17.52616557 14.84131659 -14.6615687 11.96958405 C-13.57483474 10.87612437 -12.49237055 9.77840406 -11.41428858 8.67641312 C-9.91375293 7.14445353 -8.39841965 5.62881858 -6.87839037 4.11623436 C-6.02014162 3.24989876 -5.16189287 2.38356316 -4.27763659 1.49097496 C-1.94552904 -0.23313087 -1.94552904 -0.23313087 0 0 Z M-4.59587389 6.17948204 C-5.0904056 6.68277535 -5.58493731 7.18606865 -6.09445482 7.70461327 C-6.61834292 8.2298156 -7.14223101 8.75501793 -7.6819945 9.29613549 C-9.42290241 11.043563 -11.15673171 12.7978536 -12.89084154 14.55202538 C-14.10142173 15.76887706 -15.31251923 16.9852143 -16.52411181 18.20105797 C-19.72447411 21.4147595 -22.91924533 24.63395793 -26.1124602 27.85475975 C-31.20093338 32.98621714 -36.29589467 38.11120792 -41.39437777 43.23271805 C-43.16698131 45.01545724 -44.93607555 46.80162325 -46.70483691 48.58817345 C-47.80984809 49.70002453 -48.91497536 50.81176024 -50.02023607 51.92336327 C-50.5026224 52.41248696 -50.98500872 52.90161064 -51.48201281 53.40555626 C-51.95289828 53.87795738 -52.42378374 54.35035851 -52.90893847 54.83707482 C-53.38062897 55.31819536 -53.85231947 55.79931591 -54.33830363 56.29501587 C-55.94552904 57.76686913 -55.94552904 57.76686913 -58.06058222 59.21404892 C-61.47556607 61.66712655 -63.6030469 63.42472329 -64.66602427 67.59040219 C-64.9458398 71.15462981 -64.95794851 74.63559846 -64.88547045 78.2102285 C-64.88648925 79.56935093 -64.89100841 80.92847452 -64.8987456 82.2875753 C-64.90954925 85.9639312 -64.87086294 89.63825743 -64.82254368 93.31424958 C-64.7798159 97.16928075 -64.78113552 101.0243097 -64.77716357 104.87954003 C-64.764284 111.35259015 -64.7218552 117.82488227 -64.65890795 124.29763085 C-64.5783362 132.59333252 -64.54352787 140.88854059 -64.52428919 149.18458611 C-64.50765331 156.33256762 -64.47319496 163.48044573 -64.43421417 170.62833649 C-64.42612964 172.15871749 -64.41864848 173.68910179 -64.41176945 175.21948868 C-64.3921227 179.58427329 -64.36299347 183.94876698 -64.31809145 188.31336838 C-64.30012189 190.25971916 -64.29152047 192.20614944 -64.28323656 194.15256554 C-64.45569199 203.90584472 -64.45569199 203.90584472 -60.50802904 212.50905663 C-56.40469004 215.48397741 -54.26764031 216.88649716 -49.2397185 216.94387108 C-48.2614258 216.95670632 -47.28313311 216.96954155 -46.27519518 216.98276573 C-45.21378817 216.99015267 -44.15238116 216.9975396 -43.05881029 217.00515038 C-41.42325434 217.017258 -41.42325434 217.017258 -39.75465685 217.02961022 C-37.44207643 217.04346048 -35.12947548 217.0541784 -32.81686693 217.06203514 C-29.28969464 217.07921489 -25.76346751 217.12308994 -22.23654467 217.16725975 C-19.98980677 217.17738945 -17.7430609 217.18590468 -15.49631029 217.19265038 C-14.44502444 217.21015846 -13.39373858 217.22766655 -12.31059557 217.24570519 C-5.99019838 217.22710382 -1.97013826 216.74577059 3.05447096 212.76686913 C6.02638786 208.05745479 6.48733504 203.96200721 6.44888014 198.52417809 C6.45801679 197.30283963 6.45801679 197.30283963 6.46733803 196.05682766 C6.48394626 193.33690353 6.47919541 190.61744866 6.47439283 187.89748436 C6.48173426 185.9441408 6.49032071 183.99080158 6.50005811 182.03746849 C6.52227085 176.73803187 6.52520504 171.43875073 6.5233106 166.13927394 C6.52319093 161.71554583 6.53175335 157.2918507 6.54008812 152.86813176 C6.55931996 142.43437144 6.5622062 132.00069114 6.55544752 121.56691796 C6.54880098 110.79904133 6.57169634 100.03150676 6.60876125 89.26369953 C6.63942865 80.01939546 6.65082167 70.77520161 6.64692444 61.53084767 C6.64485451 56.00916577 6.65037436 50.48775026 6.67481703 44.96611649 C6.69703365 39.77607061 6.69524866 34.58658263 6.6748895 29.3965345 C6.67147086 27.49096995 6.67660518 25.58536818 6.69087309 23.67985398 C6.70899772 21.08010643 6.69636853 18.48226546 6.67593092 15.88257653 C6.68844877 15.12693474 6.70096661 14.37129295 6.71386379 13.59275293 C6.64652587 9.60306997 6.17251839 7.91393596 3.64062971 4.75963742 C-0.42509498 1.6267875 -1.22644174 2.8197297 -4.59587389 6.17948204 Z " fill="#000000" transform="translate(145.94552904367447,263.2331308722496)"/>
<path d="M0 0 C2.8754551 1.38211039 4.89737905 2.66694434 7.109375 4.97753906 C7.69098389 5.57866516 8.27259277 6.17979126 8.87182617 6.7991333 C9.49162354 7.44807556 10.1114209 8.09701782 10.75 8.765625 C12.09443517 10.14513275 13.43950853 11.52401876 14.78515625 12.90234375 C16.88711868 15.06582704 18.98413099 17.23341971 21.06982422 19.41259766 C34.83474997 34.15259529 34.83474997 34.15259529 53.546875 40.16796875 C54.94788091 40.17990914 56.34894379 40.18622166 57.75 40.1875 C58.78640625 40.20586914 58.78640625 40.20586914 59.84375 40.22460938 C60.87242187 40.22750977 60.87242187 40.22750977 61.921875 40.23046875 C62.53643555 40.23457764 63.15099609 40.23868652 63.78417969 40.24291992 C66.9695994 39.89370302 69.93071592 38.8992041 73 38 C73.16366628 56.63696147 73.28703159 75.2737767 73.3626852 93.91130829 C73.39874944 102.56546582 73.44790002 111.21917632 73.52807617 119.87304688 C73.59794084 127.41754985 73.64302973 134.96172901 73.65861946 142.5065465 C73.66772989 146.50008776 73.68907377 150.49270285 73.7401104 154.48594666 C73.78780985 158.24875108 73.80224457 162.01025263 73.79175377 165.77333069 C73.79458222 167.80446032 73.83215668 169.83544966 73.87094116 171.86621094 C73.81341708 179.17511052 73.07296235 183.40953925 67.79628086 188.64899445 C64.63118349 191.02950421 61.80358123 191.13210192 57.98120117 191.16113281 C56.95971481 191.17074036 55.93822845 191.1803479 54.88578796 191.19024658 C53.23109245 191.1966214 53.23109245 191.1966214 51.54296875 191.203125 C50.4072493 191.20882507 49.27152985 191.21452515 48.10139465 191.22039795 C45.69643079 191.22984953 43.29145396 191.23638256 40.88647461 191.24023438 C37.21249712 191.24993401 33.5390804 191.28095426 29.86523438 191.3125 C27.52864916 191.31903072 25.19205993 191.32428092 22.85546875 191.328125 C21.7584111 191.3404718 20.66135345 191.3528186 19.53105164 191.36553955 C13.9520691 191.349299 9.77022557 191.24636987 5 188 C0.45308207 183.08441305 -0.14752997 179.28208937 -0.12025452 172.80574036 C-0.12110894 172.06813766 -0.12196337 171.33053496 -0.12284368 170.57058066 C-0.12449433 168.09235805 -0.11898388 165.61420273 -0.11352539 163.13598633 C-0.1132434 161.36216737 -0.11340148 159.5883483 -0.1139679 157.81452942 C-0.11425542 152.99253662 -0.10836592 148.17056858 -0.10139394 143.34858155 C-0.09515295 138.31170924 -0.09455601 133.2748364 -0.09336853 128.23796082 C-0.09025742 118.69699365 -0.08204698 109.1560379 -0.07201904 99.61507577 C-0.06085108 88.75427122 -0.05534573 77.89346613 -0.05032361 67.03265727 C-0.0398642 44.68843184 -0.022269 22.34421656 0 0 Z M2 4 C1.92992702 26.71351952 1.87702018 49.42702123 1.84456348 72.14062691 C1.82909289 82.68688698 1.80799966 93.2330799 1.77368164 103.77929688 C1.74378522 112.971099 1.72442639 122.16285249 1.71773452 131.35470188 C1.71382268 136.22197354 1.70462525 141.08910607 1.68280983 145.95633316 C1.6624409 150.53797435 1.65616704 155.11941914 1.66067696 159.7011013 C1.65985194 161.38210174 1.65388869 163.06310878 1.64238358 164.74407005 C1.62743285 167.04121931 1.63105544 169.33762938 1.63923645 171.63479614 C1.63647107 172.91977556 1.63370569 174.20475498 1.63085651 175.52867317 C2.12783013 180.2020804 3.49185668 183.63324512 7 186.8125 C10.32754105 188.7882275 13.04786768 189.13382424 16.83520508 189.17700195 C17.81664993 189.18983719 18.79809479 189.20267242 19.8092804 189.21589661 C20.86866318 189.22328354 21.92804596 189.23067047 23.01953125 189.23828125 C24.11085861 189.246353 25.20218597 189.25442474 26.32658386 189.26274109 C28.63738417 189.27657661 30.94820486 189.28730114 33.2590332 189.29516602 C36.78831787 189.31238204 40.31666661 189.35627459 43.84570312 189.40039062 C46.09113895 189.41051743 48.33658273 189.41903357 50.58203125 189.42578125 C52.16199638 189.45204338 52.16199638 189.45204338 53.77388 189.47883606 C59.84051064 189.46092475 63.39961848 189.08272744 68 185 C71.46705326 180.21785758 72.12565545 176.2052649 72.12025452 170.39385986 C72.12162918 169.25245041 72.12300385 168.11104095 72.12442017 166.93504333 C72.12082489 165.68707474 72.11722961 164.43910614 72.11352539 163.15332031 C72.11367142 161.83600418 72.11381744 160.51868805 72.1139679 159.16145325 C72.1142548 155.55228744 72.10837534 151.94315486 72.10139394 148.33399677 C72.09514261 144.56102479 72.09455519 140.78805205 72.09336853 137.01507568 C72.09026047 129.87180094 72.08205414 122.72854151 72.07201904 115.5852735 C72.06084162 107.45232672 72.05534334 99.3193792 72.05032361 91.18642664 C72.0398711 74.4576088 72.02228181 57.72880635 72 41 C70.82577988 41.242024 70.82577988 41.242024 69.62783813 41.48893738 C59.30617301 43.49629741 47.24692236 43.19896168 38 38 C29.6949164 31.40642774 22.38165895 23.4724282 14.9375 15.9375 C12.69946277 13.67293602 10.45815116 11.4116856 8.21484375 9.15234375 C7.44937477 8.37442726 7.44937477 8.37442726 6.66844177 7.58079529 C5.4644024 6.36826063 4.23479695 5.18119752 3 4 C2.67 4 2.34 4 2 4 Z " fill="#000000" transform="translate(173,291)"/>
</svg>
