<?xml version="1.0" encoding="UTF-8"?>
<svg version="1.1" xmlns="http://www.w3.org/2000/svg" width="500" height="500">
<path d="M0 0 C5.21486597 3.74425442 10.13305121 8.17881829 13.66796875 13.57421875 C13.66796875 14.23421875 13.66796875 14.89421875 13.66796875 15.57421875 C14.32796875 15.57421875 14.98796875 15.57421875 15.66796875 15.57421875 C15.95929688 16.10789062 16.250625 16.6415625 16.55078125 17.19140625 C18.82609206 21.32703407 21.15497503 25.41463278 23.60546875 29.44921875 C25.60870774 32.76265698 27.52142052 36.10186472 29.35546875 39.51171875 C32.18645472 44.76286159 35.16798422 49.91862285 38.16796875 55.07421875 C49.66796875 74.87330782 49.66796875 74.87330782 49.66796875 77.57421875 C50.32796875 77.57421875 50.98796875 77.57421875 51.66796875 77.57421875 C52.47234375 79.24484375 52.47234375 79.24484375 53.29296875 80.94921875 C55.35313819 85.07681174 57.6909314 88.98817259 60.08984375 92.92578125 C62.26607823 96.57797673 64.27922181 100.31142001 66.30078125 104.05078125 C68.86287366 108.77967181 71.56704338 113.41272677 74.35546875 118.01171875 C77.07701753 122.52230594 79.66225669 127.10048755 82.23046875 131.69921875 C84.88454653 136.44732447 87.56640929 141.14921815 90.49609375 145.734375 C94.67443831 152.29437596 98.48674616 159.0330389 102.1796875 165.875 C103.55863758 168.37593046 104.99689044 170.82178418 106.48046875 173.26171875 C109.5613914 178.33189854 112.45061844 183.50095301 115.34423828 188.67919922 C117.90297716 193.24644543 120.55345642 197.74539268 123.2734375 202.21875 C124.80426732 204.80443735 126.24075525 207.43000149 127.66796875 210.07421875 C130.51222343 215.34053406 133.55335617 220.46430749 136.66796875 225.57421875 C140.3406133 231.59965122 143.83679773 237.6801974 147.1875 243.890625 C148.52013981 246.30625441 149.913305 248.66045464 151.35546875 251.01171875 C154.55615367 256.28898746 157.55247911 261.6760871 160.54296875 267.07421875 C161.04401123 267.97197021 161.54505371 268.86972168 162.0612793 269.79467773 C162.52703369 270.63973877 162.99278809 271.4847998 163.47265625 272.35546875 C163.89530762 273.11923828 164.31795898 273.88300781 164.75341797 274.66992188 C165.66796875 276.57421875 165.66796875 276.57421875 165.66796875 278.57421875 C166.32796875 278.57421875 166.98796875 278.57421875 167.66796875 278.57421875 C168.20421875 279.68796875 168.74046875 280.80171875 169.29296875 281.94921875 C171.35313819 286.07681174 173.6909314 289.98817259 176.08984375 293.92578125 C178.26309166 297.57296463 180.27352406 301.30128715 182.29296875 305.03515625 C184.5661785 309.23284471 186.85089475 313.37584354 189.54296875 317.32421875 C191.95879823 321.01901678 194.01400565 324.84166979 196.10546875 328.7265625 C197.52845895 331.31996213 199.00959321 333.85748247 200.54296875 336.38671875 C212.5826619 356.336395 212.5826619 356.336395 214.66796875 364.57421875 C214.84972656 365.16847656 215.03148437 365.76273437 215.21875 366.375 C217.90179605 379.51026021 214.82654483 392.4761747 207.66796875 403.57421875 C204.46236501 408.32735533 200.31678063 411.33413774 195.66796875 414.57421875 C194.49234375 415.40953125 194.49234375 415.40953125 193.29296875 416.26171875 C180.46634698 422.67502963 165.75111484 421.72385047 151.77259827 421.70120239 C150.20393174 421.70235701 148.63526548 421.70394682 147.06659979 421.70592964 C142.79039444 421.71007614 138.51421162 421.70805357 134.23800623 421.70494342 C129.61283701 421.70267034 124.98767152 421.70617841 120.36250305 421.70892334 C111.3150625 421.71335976 102.26763027 421.71241401 93.2201894 421.7095107 C85.86363934 421.70724816 78.50709161 421.70694783 71.15054131 421.70803452 C70.10170752 421.70818775 69.05287374 421.70834098 67.97225712 421.70849886 C65.8412573 421.7088186 63.71025748 421.70914281 61.57925766 421.70947145 C41.61698687 421.71232004 21.65472067 421.70904902 1.69245064 421.70367108 C-15.41719342 421.69920426 -32.52683068 421.69997918 -49.63647461 421.70458984 C-69.52797878 421.70994769 -89.41947892 421.71204472 -109.31098372 421.70897758 C-111.43425182 421.70865905 -113.55751993 421.70834468 -115.68078804 421.70803452 C-116.72534513 421.70788024 -117.76990222 421.70772596 -118.84611256 421.70756701 C-126.18897875 421.70670544 -133.53184238 421.708157 -140.87470818 421.71051407 C-149.8302101 421.71332573 -158.78570327 421.71254505 -167.74120419 421.70723332 C-172.30595947 421.70461463 -176.87070017 421.70356005 -181.43545532 421.70688248 C-185.62195281 421.70988339 -189.80842235 421.70819003 -193.99491734 421.70290492 C-195.50149707 421.70179682 -197.00807921 421.70233578 -198.51465737 421.70478071 C-235.73106504 421.76049769 -235.73106504 421.76049769 -249.39453125 408.82421875 C-251.33203125 406.57421875 -251.33203125 406.57421875 -251.33203125 404.57421875 C-251.93917969 404.33058594 -252.54632813 404.08695312 -253.171875 403.8359375 C-258.23484672 400.87872255 -259.85344032 394.28504381 -261.3515625 388.9296875 C-262.98619457 381.56264709 -263.93220327 374.98751569 -262.33203125 367.57421875 C-262.16703125 366.77886719 -262.00203125 365.98351562 -261.83203125 365.1640625 C-260.27464888 359.02213579 -257.44318325 353.97258475 -254.16015625 348.5859375 C-252.43733768 345.74770434 -250.83768865 342.87507033 -249.26953125 339.94921875 C-246.44448081 334.72624751 -243.42178306 329.64396655 -240.33203125 324.57421875 C-239.26730127 322.82557462 -238.20477601 321.07558602 -237.14453125 319.32421875 C-236.67660156 318.5559375 -236.20867187 317.78765625 -235.7265625 316.99609375 C-234.78455876 315.36012086 -233.900963 313.689324 -233.07421875 311.9921875 C-230.48468394 306.91182213 -227.54207696 302.04625781 -224.64453125 297.13671875 C-219.31399184 288.06005975 -214.1589007 278.9281521 -209.33203125 269.57421875 C-208.67203125 269.57421875 -208.01203125 269.57421875 -207.33203125 269.57421875 C-207.0896875 268.74535156 -206.84734375 267.91648437 -206.59765625 267.0625 C-205.13189715 263.02261458 -203.21628524 259.47930887 -201.08203125 255.76171875 C-200.68089111 255.05466797 -200.27975098 254.34761719 -199.86645508 253.61914062 C-197.28456022 249.11052807 -194.53289573 244.77210231 -191.5859375 240.4921875 C-190.00001649 238.06637063 -188.77164395 235.54490431 -187.5234375 232.93359375 C-185.29830288 228.52709765 -182.76781202 224.28437622 -180.3046875 220.0078125 C-177.93711685 215.88683309 -175.62322408 211.7380211 -173.33203125 207.57421875 C-172.67203125 207.57421875 -172.01203125 207.57421875 -171.33203125 207.57421875 C-171.24953125 206.89359375 -171.16703125 206.21296875 -171.08203125 205.51171875 C-170.12956168 201.78121295 -168.32320754 198.82331277 -166.33203125 195.57421875 C-165.37341363 193.97022195 -164.41509982 192.36604355 -163.45703125 190.76171875 C-161.9188563 188.20324684 -160.37665018 185.64750476 -158.82421875 183.09765625 C-156.26091713 178.87022165 -153.79357943 174.61906536 -151.45703125 170.26171875 C-149.21779467 166.10564875 -146.82686308 162.08207596 -144.33203125 158.07421875 C-140.77155317 152.35032637 -137.51159457 146.51545992 -134.33203125 140.57421875 C-133.48129038 139.03065897 -132.62727613 137.48889746 -131.76953125 135.94921875 C-131.3725 135.23636719 -130.97546875 134.52351562 -130.56640625 133.7890625 C-130.1590625 133.05816406 -129.75171875 132.32726562 -129.33203125 131.57421875 C-128.39431253 129.88684028 -127.4568077 128.19934292 -126.51953125 126.51171875 C-125.79036458 125.19921875 -125.06119792 123.88671875 -124.33203125 122.57421875 C-123.67203125 122.57421875 -123.01203125 122.57421875 -122.33203125 122.57421875 C-122.22246094 121.84589844 -122.11289063 121.11757812 -122 120.3671875 C-121.29072114 117.40148935 -120.26383629 115.45805615 -118.64453125 112.88671875 C-118.10441406 112.0153125 -117.56429687 111.14390625 -117.0078125 110.24609375 C-116.45480469 109.364375 -115.90179688 108.48265625 -115.33203125 107.57421875 C-111.61980316 101.50486898 -108.08804538 95.36953398 -104.70703125 89.109375 C-102.96622208 85.89975808 -101.15666878 82.73692381 -99.33203125 79.57421875 C-99.00460938 78.99027344 -98.6771875 78.40632813 -98.33984375 77.8046875 C-96.80265468 75.06992089 -95.22484094 72.41700629 -93.45703125 69.82421875 C-90.45415873 65.23159019 -87.93169818 60.40313375 -85.33203125 55.57421875 C-83.67492875 52.56888197 -82.00275303 49.57200118 -80.33203125 46.57421875 C-79.39431253 44.88684028 -78.4568077 43.19934292 -77.51953125 41.51171875 C-76.79036458 40.19921875 -76.06119792 38.88671875 -75.33203125 37.57421875 C-74.67203125 37.57421875 -74.01203125 37.57421875 -73.33203125 37.57421875 C-73.22117188 36.84460938 -73.1103125 36.115 -72.99609375 35.36328125 C-72.29677735 32.42615237 -71.30222988 30.49983047 -69.70703125 27.94921875 C-68.90072266 26.65371094 -68.90072266 26.65371094 -68.078125 25.33203125 C-67.50191406 24.42195313 -66.92570313 23.511875 -66.33203125 22.57421875 C-65.45224609 21.14722656 -65.45224609 21.14722656 -64.5546875 19.69140625 C-57.27101586 7.9929052 -49.39277361 -0.71955511 -35.80078125 -4.765625 C-23.67123481 -7.07406345 -10.74162776 -6.56732686 0 0 Z M-39.93774414 43.32617188 C-43.73797039 49.3390752 -47.02548047 55.6099437 -50.04296875 62.05078125 C-51.27965285 64.47168406 -52.68962333 66.41829311 -54.33203125 68.57421875 C-55.29738519 70.26696823 -56.23311927 71.97682587 -57.14453125 73.69921875 C-60.50212231 79.94185102 -64.14383048 85.98420187 -67.83203125 92.03515625 C-70.97842672 97.22998628 -73.965669 102.48542575 -76.83984375 107.8359375 C-80.293549 114.17375786 -83.96084496 120.39364394 -87.58203125 126.63671875 C-90.87263004 132.31317922 -94.14991075 137.99635217 -97.39453125 143.69921875 C-100.78688842 149.65499982 -104.26515607 155.55721064 -107.75537109 161.45605469 C-110.08918506 165.41476741 -112.35144338 169.39633983 -114.51953125 173.44921875 C-117.00505334 178.07719086 -119.76451038 182.48030176 -122.609375 186.89453125 C-127.19695761 194.03077087 -131.27161142 201.25521536 -134.9375 208.91015625 C-136.22495311 211.36966051 -137.65565141 213.37397021 -139.33203125 215.57421875 C-140.29738519 217.26696823 -141.23311927 218.97682587 -142.14453125 220.69921875 C-144.06647552 224.27460037 -146.03288809 227.79510457 -148.14453125 231.26171875 C-152.01079043 237.63445041 -155.63506689 244.14153787 -159.26123047 250.65283203 C-160.2513218 252.42939811 -161.24652945 254.20311023 -162.2421875 255.9765625 C-162.78746094 256.95753906 -163.33273438 257.93851563 -163.89453125 258.94921875 C-164.60802734 260.22925781 -164.60802734 260.22925781 -165.3359375 261.53515625 C-166.478342 263.4954994 -166.478342 263.4954994 -166.33203125 265.57421875 C-166.99203125 265.57421875 -167.65203125 265.57421875 -168.33203125 265.57421875 C-168.96109375 266.71117187 -169.59015625 267.848125 -170.23828125 269.01953125 C-177.50864816 282.14420107 -184.90355605 295.18224167 -192.53979492 308.09765625 C-195.86760789 313.74283599 -199.08425148 319.44534718 -202.27783203 325.16723633 C-204.50918671 329.15165487 -206.82165192 333.0585623 -209.2734375 336.91015625 C-213.37821218 343.2966199 -213.37821218 343.2966199 -215.33203125 350.57421875 C-215.99203125 350.57421875 -216.65203125 350.57421875 -217.33203125 350.57421875 C-218.31687233 352.32103168 -219.29469312 354.07180385 -220.26953125 355.82421875 C-220.81480469 356.79875 -221.36007813 357.77328125 -221.921875 358.77734375 C-224.9918507 364.86627063 -225.18239757 370.78690692 -223.20703125 377.26171875 C-220.16862652 382.6295671 -216.24863124 385.6520871 -210.33203125 387.57421875 C-207.25691588 387.87438891 -207.25691588 387.87438891 -203.898242 387.83148766 C-202.5904304 387.83793655 -201.2826188 387.84438544 -199.93517655 387.85102975 C-198.48548576 387.84808753 -197.03579535 387.8449521 -195.58610535 387.84164429 C-194.04481401 387.84538065 -192.50352457 387.84998212 -190.96223813 387.85537493 C-186.72476948 387.8676221 -182.48737968 387.86734245 -178.24989736 387.86498618 C-173.68058831 387.86457845 -169.11130468 387.875613 -164.54200745 387.88510132 C-155.58906251 387.9017217 -146.6361439 387.90721133 -137.68318482 387.90832607 C-130.40648029 387.90927606 -123.12978444 387.91338385 -115.85308266 387.91972733 C-95.22690867 387.93734255 -74.6007555 387.94656575 -53.97457393 387.94506638 C-52.86236639 387.94498647 -51.75015885 387.94490655 -50.60424805 387.94482422 C-49.49068411 387.94474246 -48.37712018 387.9446607 -47.22981188 387.94457646 C-29.18095656 387.94376347 -11.13218467 387.96290355 6.91664652 387.99110095 C25.44453272 388.01981861 43.97237821 388.03364186 62.50028723 388.0319134 C72.90412048 388.03124911 83.30786625 388.03675837 93.71167946 388.0582695 C102.56950036 388.07646657 111.42719415 388.08084076 120.28502563 388.06725065 C124.80451016 388.06071356 129.3237507 388.06063049 133.84321213 388.07795715 C137.98174329 388.09366025 142.11983647 388.0908527 146.25835677 388.07338889 C147.75430401 388.07031288 149.25028371 388.07397404 150.74619267 388.08510904 C158.77916418 388.14093624 164.86399985 388.08067212 171.66796875 383.57421875 C176.29466629 378.82576601 178.28259023 374.0298146 178.203125 367.33203125 C177.03187507 361.29624696 173.63667101 355.89819245 170.66796875 350.57421875 C170.00796875 350.57421875 169.34796875 350.57421875 168.66796875 350.57421875 C168.54574951 349.99623535 168.42353027 349.41825195 168.29760742 348.82275391 C167.64768891 346.50179636 166.77095355 344.69646799 165.59375 342.59765625 C165.17641602 341.84943604 164.75908203 341.10121582 164.32910156 340.33032227 C163.88405273 339.54455811 163.43900391 338.75879395 162.98046875 337.94921875 C162.52639648 337.13960693 162.07232422 336.32999512 161.60449219 335.49584961 C158.8282206 330.56514774 155.97642752 325.68891388 153.02734375 320.859375 C151.50434053 318.29915406 150.08265853 315.69577018 148.66796875 313.07421875 C145.37228342 306.97205138 141.81488753 301.04618897 138.16796875 295.1484375 C134.83400968 289.70470746 131.92804535 284.15005938 129.12109375 278.41796875 C127.46894213 275.1847258 125.62992267 272.13721603 123.6484375 269.09765625 C122.66796875 267.57421875 122.66796875 267.57421875 121.66796875 265.57421875 C121.00796875 265.57421875 120.34796875 265.57421875 119.66796875 265.57421875 C119.56871094 264.85492188 119.46945312 264.135625 119.3671875 263.39453125 C118.57370247 260.19399385 117.32365586 258.17534537 115.48046875 255.44921875 C111.88361263 249.97670147 108.74864919 244.34834327 105.66796875 238.57421875 C103.17585058 233.99514272 100.62216135 229.46917908 97.91796875 225.01171875 C95.38950996 220.83176029 92.98314238 216.59106118 90.60546875 212.32421875 C83.81145987 200.15476282 76.65769532 188.18858511 69.4609375 176.25390625 C67.44683517 172.90091546 65.50451373 169.5286724 63.66796875 166.07421875 C60.37228342 159.97205138 56.81488753 154.04618897 53.16796875 148.1484375 C50.4386855 143.6920297 47.95567017 139.21223026 45.66796875 134.51171875 C43.41562821 129.90653953 40.88330882 125.7255433 37.96875 121.515625 C36.27368442 118.98575234 35.00671585 116.30749407 33.66796875 113.57421875 C31.22808134 109.37585392 28.68322308 105.24007533 26.15625 101.09375 C23.64470244 96.94738932 21.21412967 92.78154608 18.91796875 88.51171875 C16.27405233 83.61351571 13.49338478 78.80655439 10.66796875 74.01171875 C10.23291016 73.2734082 9.79785156 72.53509766 9.34960938 71.77441406 C7.07008343 67.91715269 4.759334 64.081841 2.41796875 60.26171875 C-0.3084129 55.76395919 -2.59340365 51.08899862 -4.83984375 46.3359375 C-8.60842422 39.36110401 -13.09185991 36.40783213 -20.33203125 33.57421875 C-28.41327696 31.89062589 -35.55766558 36.88149891 -39.93774414 43.32617188 Z " fill="#000000" transform="translate(273.33203125,42.42578125)"/>
<path d="M0 0 C1.73926758 -0.0299707 1.73926758 -0.0299707 3.51367188 -0.06054688 C11.5828564 -0.05601108 20.59259343 0.46051875 26.68823242 6.38061523 C34.68189744 16.26866764 32.89090039 27.47141212 31.8828125 39.3828125 C31.71056009 41.5138173 31.53853149 43.64484019 31.36669922 45.77587891 C31.23083405 47.4365036 31.23083405 47.4365036 31.09222412 49.13067627 C29.65491756 66.76441743 28.36741371 84.38802694 27.5625 102.0625 C27.03884469 113.55101413 26.39998755 124.9998904 25.43920898 136.4621582 C24.48583016 148.20985176 23.9485355 159.98059506 23.38476562 171.75219727 C23.04771882 178.75931357 22.70267055 185.76586479 22.234375 192.765625 C22.13721191 194.22790527 22.13721191 194.22790527 22.03808594 195.71972656 C21.15600255 202.55771562 18.5181732 208.705211 13.31640625 213.3203125 C8.4396027 216.66507465 2.43121762 217.12938185 -3.3125 216.4375 C-9.28443565 215.09915661 -13.77778738 212.47489858 -17.3125 207.4375 C-20.05886692 200.74579823 -20.90777081 193.90896271 -21.375 186.75 C-21.45169922 185.70183105 -21.52839844 184.65366211 -21.60742188 183.57373047 C-22.43700463 171.70496419 -22.98347246 159.81763226 -23.56274414 147.93457031 C-24.02097751 138.61079498 -24.56780236 129.30617764 -25.3125 120 C-26.25521117 108.20105252 -26.82058303 96.39707767 -27.36810303 84.57489014 C-28.05197968 69.98261529 -29.08533425 55.43687427 -30.34741211 40.88354492 C-32.43942521 16.50941137 -32.43942521 16.50941137 -26.3125 7.4375 C-19.15446316 -0.10745775 -9.71546795 -0.05881681 0 0 Z " fill="#000000" transform="translate(249.3125,138.5625)"/>
<path d="M0 0 C5.17527629 4.68395259 8.97815569 10.29715299 9.50390625 17.390625 C9.94632955 33.22873089 9.94632955 33.22873089 4.91015625 40.05078125 C-1.52791131 46.62050664 -8.92954116 50.24199031 -18.1875 50.4375 C-25.54220409 50.31141936 -31.99517946 48.44622855 -37.65234375 43.578125 C-38.9375 42.125 -38.9375 42.125 -41 39 C-41.7425 37.948125 -42.485 36.89625 -43.25 35.8125 C-45.79465733 31.14557785 -45.92621232 26.22416746 -46 21 C-46.01289063 20.21109375 -46.02578125 19.4221875 -46.0390625 18.609375 C-45.68207907 10.75573963 -41.30048053 4.98074003 -35.8125 -0.375 C-25.22045158 -8.7322426 -10.65976401 -7.2748214 0 0 Z " fill="#000000" transform="translate(268,369)"/>
</svg>
