<?xml version="1.0" encoding="UTF-8"?>
<svg version="1.1" xmlns="http://www.w3.org/2000/svg" width="200" height="200">
<path d="M0 0 C2.69095081 1.98396866 5.13285589 4.01504661 7.4375 6.4375 C11.53592405 5.02866673 14.89341603 2.94711643 18.47265625 0.55859375 C24.84760177 -3.07880061 34.16364123 -2.61355267 41.07421875 -0.9140625 C46.88592944 1.45930626 53.53378564 5.61465658 56.40234375 11.375 C56.66144531 11.99375 56.92054688 12.6125 57.1875 13.25 C59.05981027 16.62500061 59.05981027 16.62500061 61.95703125 17.109375 C64.03741638 17.37643343 66.11960477 17.62971031 68.203125 17.87109375 C76.21276321 19.27374778 83.03108454 23.91114658 88 30.265625 C93.87309326 39.13910286 94.45758486 48.08942269 93.4375 58.4375 C91.83687964 65.63555605 88.07247073 71.66860454 82.4375 76.4375 C80.84608937 77.13406826 79.24131391 77.80084902 77.625 78.4375 C75.21709631 79.47216332 75.21709631 79.47216332 73.4375 81.4375 C72.67336379 84.77224979 72.33851197 87.88146324 72.09667969 91.27905273 C71.49757197 98.93869741 68.86943532 104.10072 63.32421875 109.4921875 C55.94279076 115.6370032 48.90067011 117.8022409 39.4375 118.4375 C44.18943616 127.89757567 49.48746443 134.73706192 58.71484375 140.11328125 C59.28332031 140.55027344 59.85179687 140.98726562 60.4375 141.4375 C60.4375 142.4275 60.4375 143.4175 60.4375 144.4375 C54.38012341 144.70383336 49.59506788 143.96289175 43.875 142 C42.71242676 141.60554688 42.71242676 141.60554688 41.52636719 141.203125 C36.10962697 139.26398956 31.12539901 136.88524768 26.1875 133.9375 C25.59251709 133.58244385 24.99753418 133.2273877 24.38452148 132.86157227 C21.28912408 130.90902294 18.69121698 128.78012011 16.16015625 126.1640625 C13.80602773 123.19903856 13.80602773 123.19903856 11.125 123.3125 C7.90195474 124.66168174 4.69293059 126.02883597 1.5234375 127.5 C-7.2961417 131.46385582 -20.0990391 130.62622878 -29.1875 127.875 C-38.41802989 124.19821511 -45.69419421 117.35756063 -51.5625 109.4375 C-53.0625 105.875 -53.0625 105.875 -53.5625 103.4375 C-54.41585937 103.75976562 -55.26921875 104.08203125 -56.1484375 104.4140625 C-66.01885445 107.37292891 -76.35747061 105.74480967 -85.5625 101.4375 C-94.65631228 96.22519296 -102.02665124 87.80751269 -105.7109375 78.0078125 C-108.88119674 64.71599165 -107.11940395 52.60278313 -100.05859375 40.95703125 C-94.26533229 32.62311055 -86.53478671 28.00373651 -76.75 25.75 C-72.87522988 24.68660608 -71.09053285 24.1718132 -68.72265625 20.87890625 C-67.77071857 18.80890327 -66.86387754 16.71764758 -66 14.609375 C-61.51767661 4.71903101 -52.89092846 -1.17519475 -43.33984375 -5.58984375 C-29.13832029 -10.87583104 -12.30671116 -8.35793909 0 0 Z " fill="#E59F60" transform="translate(106.5625,31.5625)"/>
</svg>
