<?xml version="1.0" encoding="UTF-8"?>
<svg version="1.1" xmlns="http://www.w3.org/2000/svg" width="500" height="500">
<path d="M0 0 C1.21913086 -0.00807175 2.43826172 -0.01614349 3.69433594 -0.02445984 C6.27635294 -0.03825768 8.85838786 -0.04899895 11.44042969 -0.05688477 C14.0348866 -0.0683148 16.62932172 -0.08862069 19.22363281 -0.1184082 C66.5088399 -0.66000355 109.04111393 12.98726828 149.375 37.23828125 C150.04257324 37.63515137 150.71014648 38.03202148 151.39794922 38.44091797 C164.78276133 46.45058757 176.54838046 56.44491344 187.9375 67.05078125 C188.57993652 67.64842285 189.22237305 68.24606445 189.88427734 68.86181641 C193.78313986 72.55499331 197.38055896 76.41830381 200.8671875 80.50292969 C202.12269484 81.94790154 203.4589413 83.32222255 204.8125 84.67578125 C211.51191529 91.37519654 217.10374475 98.38316302 222.18994141 106.38037109 C223.52447901 108.47263132 224.8778006 110.55223115 226.23046875 112.6328125 C249.57499013 148.76542157 266.33423102 190.34133663 266.61328125 233.86328125 C266.621353 235.08241211 266.62942474 236.30154297 266.63774109 237.55761719 C266.65153893 240.13963419 266.6622802 242.72166911 266.67016602 245.30371094 C266.68159605 247.89816785 266.70190194 250.49260297 266.73168945 253.08691406 C267.13094485 287.94480941 260.23378609 319.30445438 246.375 351.23828125 C245.99972168 352.11000977 245.62444336 352.98173828 245.23779297 353.87988281 C240.10413179 365.66213172 233.82988119 376.44662432 226.74707031 387.15966797 C225.53185466 389.00065482 224.33585629 390.85196376 223.1484375 392.7109375 C218.67132036 399.62282154 213.66934263 405.93880966 208.375 412.23828125 C207.40820312 413.47771484 207.40820312 413.47771484 206.421875 414.7421875 C204.21931813 417.42812994 201.85836543 419.80993869 199.375 422.23828125 C198.3563868 423.26525744 197.33954554 424.29399331 196.32421875 425.32421875 C190.51884718 431.18883783 184.72315645 436.95713242 178.375 442.23828125 C177.28508087 443.18871565 176.19524558 444.1392462 175.10546875 445.08984375 C165.10331145 453.66200206 154.39277562 460.34126875 142.92871094 466.78955078 C140.6841287 468.0629113 138.46705334 469.36977282 136.2578125 470.703125 C105.72338696 488.9294655 68.33224932 500.24841932 32.75 500.4765625 C31.53086914 500.48463425 30.31173828 500.49270599 29.05566406 500.50102234 C26.47364706 500.51482018 23.89161214 500.52556145 21.30957031 500.53344727 C18.7151134 500.5448773 16.12067828 500.56518319 13.52636719 500.5949707 C-33.7588399 501.13656605 -76.29111393 487.48929422 -116.625 463.23828125 C-117.29257324 462.84141113 -117.96014648 462.44454102 -118.64794922 462.03564453 C-132.03276133 454.02597493 -143.79838046 444.03164906 -155.1875 433.42578125 C-156.15115479 432.52931885 -156.15115479 432.52931885 -157.13427734 431.61474609 C-161.03313986 427.92156919 -164.63055896 424.05825869 -168.1171875 419.97363281 C-169.37269484 418.52866096 -170.7089413 417.15433995 -172.0625 415.80078125 C-178.76191529 409.10136596 -184.35374475 402.09339948 -189.43994141 394.09619141 C-190.77447901 392.00393118 -192.1278006 389.92433135 -193.48046875 387.84375 C-216.82499013 351.71114093 -233.58423102 310.13522587 -233.86328125 266.61328125 C-233.871353 265.39415039 -233.87942474 264.17501953 -233.88774109 262.91894531 C-233.90153893 260.33692831 -233.9122802 257.75489339 -233.92016602 255.17285156 C-233.93159605 252.57839465 -233.95190194 249.98395953 -233.98168945 247.38964844 C-234.38094485 212.53175309 -227.48378609 181.17210812 -213.625 149.23828125 C-213.06208252 147.93068848 -213.06208252 147.93068848 -212.48779297 146.59667969 C-207.35413179 134.81443078 -201.07988119 124.02993818 -193.99707031 113.31689453 C-192.78185466 111.47590768 -191.58585629 109.62459874 -190.3984375 107.765625 C-185.92132036 100.85374096 -180.91934263 94.53775284 -175.625 88.23828125 C-174.98046875 87.41199219 -174.3359375 86.58570312 -173.671875 85.734375 C-171.46931813 83.04843256 -169.10836543 80.66662381 -166.625 78.23828125 C-165.6063868 77.21130506 -164.58954554 76.18256919 -163.57421875 75.15234375 C-157.76884718 69.28772467 -151.97315645 63.51943008 -145.625 58.23828125 C-144.53508087 57.28784685 -143.44524558 56.3373163 -142.35546875 55.38671875 C-132.35331145 46.81456044 -121.64277562 40.13529375 -110.17871094 33.68701172 C-107.9341287 32.4136512 -105.71705334 31.10678968 -103.5078125 29.7734375 C-72.97338696 11.547097 -35.58224932 0.22814318 0 0 Z M-82.57861328 51.12890625 C-84.72668054 52.2934037 -86.89141975 53.42228969 -89.05859375 54.55078125 C-98.98004554 59.79830659 -107.9336175 65.79517287 -116.734375 72.74902344 C-118.58071535 74.20339794 -120.44331889 75.63374255 -122.3125 77.05859375 C-134.06383775 86.06406804 -144.55596045 95.4469471 -153.625 107.23828125 C-154.52652025 108.38606396 -155.42889963 109.53317226 -156.33203125 110.6796875 C-157.24305936 111.84437063 -158.15323142 113.00972393 -159.0625 114.17578125 C-159.48805176 114.71960449 -159.91360352 115.26342773 -160.35205078 115.82373047 C-163.40986322 119.7886928 -163.40986322 119.7886928 -165.625 124.23828125 C-165.42031773 126.31982692 -165.42031773 126.31982692 -164.63037109 128.43334961 C-164.36284027 129.25197983 -164.09530945 130.07061005 -163.81967163 130.91404724 C-163.51566437 131.7931929 -163.2116571 132.67233856 -162.8984375 133.578125 C-162.59434967 134.49606339 -162.29026184 135.41400177 -161.97695923 136.35975647 C-160.99856883 139.30330104 -159.99987118 142.23947203 -159 145.17578125 C-158.0286155 148.0742361 -157.06137561 150.97403737 -156.09576416 153.87442017 C-155.46687764 155.75226696 -154.83098286 157.62778198 -154.18792725 159.50082397 C-152.84381909 163.43453686 -151.54958632 167.32083586 -150.62207031 171.37548828 C-149.40064598 177.23336598 -149.40064598 177.23336598 -145.76806641 181.70166016 C-143.09046112 182.84194387 -140.44821531 183.52723955 -137.625 184.23828125 C-135.64445123 184.88500307 -133.67931615 185.57009522 -131.71203613 186.25605774 C-127.94717854 187.5632351 -124.15931925 188.80131657 -120.375 190.05078125 C-119.58174316 190.31329681 -118.78848633 190.57581238 -117.97119141 190.84628296 C-113.98908663 192.16399453 -110.00590699 193.47837657 -106.02148438 194.7890625 C-102.18241319 196.05256479 -98.34875216 197.33185144 -94.515625 198.61328125 C-92.55239138 199.26005038 -90.58887729 199.9059692 -88.625 200.55078125 C-87.31160645 200.99417847 -87.31160645 200.99417847 -85.97167969 201.4465332 C-85.17665039 201.70394287 -84.38162109 201.96135254 -83.5625 202.2265625 C-82.89089844 202.44868408 -82.21929687 202.67080566 -81.52734375 202.8996582 C-78.18654786 203.49433016 -76.0884844 202.53463271 -73.28515625 200.7421875 C-72.42792969 200.10152344 -71.57070312 199.46085938 -70.6875 198.80078125 C-69.71039063 198.07375 -68.73328125 197.34671875 -67.7265625 196.59765625 C-64.12001203 193.85413423 -60.53698886 191.08106261 -56.95532227 188.30517578 C-47.20195375 180.78686552 -37.15932401 173.63353169 -27 166.67578125 C-21.26912492 162.74354168 -15.71068839 158.60564871 -10.17919922 154.39819336 C-9.54385254 153.91616455 -8.90850586 153.43413574 -8.25390625 152.9375 C-7.69775635 152.51299561 -7.14160645 152.08849121 -6.56860352 151.65112305 C-4.625 150.23828125 -4.625 150.23828125 -1.5599823 148.58726501 C1.64738456 146.50282075 1.64738456 146.50282075 2.19073486 143.05319214 C2.21963806 141.79539948 2.24854126 140.53760681 2.27832031 139.24169922 C2.30168457 138.54516739 2.32504883 137.84863556 2.34912109 137.1309967 C2.4162525 134.830259 2.43775875 132.5320993 2.453125 130.23046875 C2.47750154 128.62345494 2.50247406 127.01645007 2.52801514 125.40945435 C2.57296612 122.0383877 2.59207331 118.66822447 2.59667969 115.296875 C2.60721679 110.99682525 2.7096234 106.70440186 2.83571243 102.40640068 C2.91790647 99.08417038 2.93596728 95.76374132 2.93691254 92.44058609 C2.94761651 90.85760494 2.98107251 89.2745944 3.03861237 87.69262314 C3.47530639 79.14954384 3.47530639 79.14954384 0.02851868 71.62866974 C-3.27854568 68.6613618 -6.94665603 66.44953331 -10.81916046 64.30278397 C-13.77835799 62.55840206 -16.37621351 60.43888725 -19.0625 58.30078125 C-23.84243333 54.58098558 -28.67972016 50.94703356 -33.5625 47.36328125 C-34.48470337 46.68471069 -34.48470337 46.68471069 -35.42553711 45.99243164 C-51.61731104 34.14851023 -65.9756532 42.09283628 -82.57861328 51.12890625 Z M53.18359375 56.71875 C52.64138184 57.13922607 52.09916992 57.55970215 51.54052734 57.99291992 C49.50281617 59.57597882 47.47058574 61.16540597 45.45449829 62.77593994 C43.375 64.23828125 43.375 64.23828125 40.23764038 65.89935303 C35.10513209 68.7274819 31.14451276 71.09644042 29.10380554 76.77648926 C28.41378314 81.0463172 28.43109499 85.31464636 28.47265625 89.62890625 C28.4511492 91.22162182 28.42655072 92.81429833 28.39903259 94.40692139 C28.35745492 97.73681923 28.36498735 101.06221791 28.40551758 104.39208984 C28.44238316 107.78738535 28.40790958 111.16912677 28.30297852 114.56298828 C27.05997885 132.44969389 27.05997885 132.44969389 32.15426636 149.03100586 C36.25268496 153.29232546 40.88458773 155.9649563 46.27992249 158.28884888 C49.09695961 159.56545379 51.40388269 161.31496519 53.8125 163.23828125 C58.71167598 166.81641594 63.72994785 170.2084785 68.75 173.61328125 C76.52134253 178.89258943 84.01192721 184.40358823 91.375 190.23828125 C93.59926416 191.99278082 95.82074635 193.74420349 98.0859375 195.44555664 C100.375 197.23828125 100.375 197.23828125 102.47827148 199.22705078 C106.10809509 202.35864798 108.68476834 204.33223272 113.60327148 204.05883789 C117.4165589 203.07056424 121.06996143 201.81414411 124.75 200.42578125 C126.1304099 199.9392939 127.51228763 199.45695408 128.89550781 198.97851562 C131.08299274 198.21900338 133.26756864 197.45398777 135.44628906 196.66964722 C141.02533415 194.66490372 146.653276 192.91210355 152.3359375 191.2265625 C154.79802686 190.47749847 157.25862567 189.72376865 159.71856689 188.96768188 C161.31325093 188.48432602 162.91156598 188.01277997 164.5133667 187.55355835 C173.13918581 185.33125454 173.13918581 185.33125454 180.09399414 180.20800781 C181.2149589 177.56555568 181.79264445 175.04990292 182.375 172.23828125 C182.95247093 170.35202678 183.53110108 168.46604758 184.12942505 166.58630371 C185.24057918 163.06866952 186.27010034 159.5267753 187.3125 155.98828125 C188.15037691 153.14836037 188.99256641 150.30978699 189.83984375 147.47265625 C190.0448349 146.78248413 190.24982605 146.09231201 190.46102905 145.38122559 C192.22963857 139.5162291 194.33036679 133.8079653 196.55688477 128.10253906 C197.39227804 125.17779005 197.52891575 123.99662449 196.375 121.23828125 C193.59028428 117.08253481 190.44686835 113.1850177 187.375 109.23828125 C186.76527344 108.41972656 186.15554688 107.60117188 185.52734375 106.7578125 C177.00769669 95.57928657 166.77648449 85.49819055 155.33203125 77.34765625 C152.68006382 75.45589612 150.12755876 73.48931906 147.57568359 71.46777344 C115.51140589 46.17952342 87.28075226 30.19412745 53.18359375 56.71875 Z M-163.0625 213.36328125 C-163.81241211 213.89808105 -164.56232422 214.43288086 -165.33496094 214.98388672 C-186.33133336 229.07562766 -186.33133336 229.07562766 -205.625 245.23828125 C-208.41743479 289.13795371 -193.80445944 337.29625602 -168.97528076 373.26341248 C-167.625 375.23828125 -167.625 375.23828125 -166.54530334 377.09364319 C-164.34161431 380.35184408 -162.64949388 381.98472356 -158.76751709 382.94549561 C-155.11792059 383.28377561 -151.52862915 383.391941 -147.86328125 383.4140625 C-146.50813629 383.43659691 -145.1530079 383.46014881 -143.79789734 383.48466492 C-140.96064899 383.52647964 -138.124888 383.53955945 -135.28735352 383.53540039 C-132.39328377 383.53483164 -129.50697612 383.58327319 -126.61450195 383.67895508 C-110.05255973 385.00562578 -110.05255973 385.00562578 -95.44042969 379.33642578 C-92.90878506 376.48675138 -91.10452337 373.39786772 -89.47286987 369.9649353 C-88.31423569 367.6054218 -86.78246853 365.62966646 -85.1640625 363.56640625 C-84.18961628 362.20924603 -83.21822901 360.84988395 -82.25 359.48828125 C-81.15636565 357.9621567 -80.06261194 356.43611768 -78.96875 354.91015625 C-78.42089844 354.14380859 -77.87304688 353.37746094 -77.30859375 352.58789062 C-75.02961849 349.40737179 -72.73459729 346.23862538 -70.43701172 343.0715332 C-69.32401523 341.53218335 -68.21614332 339.98911352 -67.11376953 338.44213867 C-64.87055987 335.29712395 -62.62674818 332.2403741 -60.1484375 329.2734375 C-58.22608222 326.9243045 -56.82000797 325.0216401 -55.625 322.23828125 C-55.85572673 319.67197168 -55.85572673 319.67197168 -56.7734375 317.0703125 C-57.0715332 316.10182373 -57.36962891 315.13333496 -57.67675781 314.13549805 C-58.1461377 312.70137573 -58.1461377 312.70137573 -58.625 311.23828125 C-58.87862305 310.4181958 -59.13224609 309.59811035 -59.39355469 308.75317383 C-60.1600228 306.2834151 -60.95238862 303.82314942 -61.75 301.36328125 C-64.16379267 293.8633058 -66.5250221 286.3504246 -68.81542969 278.81176758 C-69.56840428 276.37180878 -70.34149971 273.9379756 -71.13378906 271.51049805 C-72.98521276 265.81568366 -74.69704144 260.21474339 -75.81272888 254.33302307 C-78.21639458 240.76298922 -78.21639458 240.76298922 -86.18811035 230.04949951 C-94.81526355 224.85901169 -105.0624652 222.7822729 -114.74951172 220.46972656 C-122.11262653 218.67492689 -129.24937992 216.17125369 -136.42407227 213.74810791 C-140.01403617 212.54296659 -143.61636482 211.37786533 -147.22265625 210.22265625 C-148.41383057 209.83819336 -149.60500488 209.45373047 -150.83227539 209.05761719 C-156.28819342 207.45694747 -158.73733946 210.25245549 -163.0625 213.36328125 Z M178.90991211 211.11254883 C177.95066078 211.42937874 177.95066078 211.42937874 176.97203064 211.75260925 C174.86192326 212.45250982 172.75722269 213.16735631 170.65234375 213.8828125 C169.18577448 214.37348334 167.71893784 214.86335567 166.25184631 215.35246277 C163.17895632 216.3793356 160.10851997 217.41314073 157.03979492 218.45239258 C153.10664851 219.78419516 149.1692572 221.10285195 145.23013973 222.41687489 C142.20145182 223.42800476 139.17439911 224.44395284 136.14789009 225.46158409 C134.69655301 225.94938283 133.2448775 226.43617586 131.79286003 226.92194557 C129.76389433 227.60200617 127.73703923 228.28800875 125.71069336 228.97583008 C124.5569371 229.3652327 123.40318085 229.75463531 122.21446228 230.15583801 C119.23489568 231.17140017 119.23489568 231.17140017 116.375 233.23828125 C115.22270315 236.04760312 114.23065366 238.78907644 113.30078125 241.671875 C112.87336639 242.95660454 112.87336639 242.95660454 112.43731689 244.26728821 C111.50978134 247.06664825 110.59819139 249.87090053 109.6875 252.67578125 C109.05309027 254.60528706 108.41824151 256.53464857 107.78295898 258.46386719 C104.00694118 269.97985732 100.30801846 281.51947014 97.04077148 293.19189453 C95.592212 298.34511958 94.0033587 303.31107763 91.98828125 308.2734375 C88.08105084 317.03389035 88.08105084 317.03389035 87.89892578 326.31005859 C89.84386109 330.3562279 92.73831702 333.46037566 95.86425781 336.63476562 C98.28366576 339.20274743 100.19910101 342.08298419 102.1875 344.98828125 C103.01415272 346.15041596 103.84366187 347.31052327 104.67578125 348.46875 C105.10713379 349.07122559 105.53848633 349.67370117 105.98291016 350.29443359 C106.4422998 350.93590332 106.90168945 351.57737305 107.375 352.23828125 C107.88466309 352.95064941 108.39432617 353.66301758 108.91943359 354.39697266 C110.56875564 356.70007109 112.22151907 359.00066725 113.875 361.30078125 C114.37233643 361.9959082 114.86967285 362.69103516 115.38208008 363.40722656 C116.43051694 364.86291305 117.51048887 366.29623493 118.61547852 367.70947266 C120.375 370.23828125 120.375 370.23828125 121.89819336 373.63818359 C123.98751164 377.83853565 126.1791719 380.9660809 130.375 383.23828125 C139.2059306 385.41339387 148.51497427 385.03458556 157.55151367 384.82324219 C161.20809007 384.73784054 164.85455833 384.75989589 168.51139927 384.81528473 C171.34942797 384.84745852 174.18513823 384.82581089 177.02302361 384.78813171 C179.01745294 384.76997686 181.01212387 384.79346306 183.00648499 384.81799316 C188.39512354 384.63756413 191.96489426 384.44592033 196.15135193 380.86056519 C198.46347798 378.08144379 200.45829936 375.30082693 202.375 372.23828125 C202.94474548 371.35726242 203.51449097 370.47624359 204.10150146 369.56852722 C205.59107985 367.20757322 206.96248839 364.80655525 208.3125 362.36328125 C208.81555664 361.46037354 209.31861328 360.55746582 209.83691406 359.62719727 C211.37064106 356.8416997 212.87730339 354.04329352 214.375 351.23828125 C215.05876709 349.97298584 215.05876709 349.97298584 215.75634766 348.68212891 C229.78449754 322.36707648 236.2017175 292.18837247 238.19042969 262.58447266 C238.36106313 260.41544168 238.62200332 258.28039673 238.9140625 256.125 C239.24970912 252.49143021 239.33087556 249.76042372 238.375 246.23828125 C235.509126 242.87713971 232.13331156 240.77416154 228.37353516 238.50195312 C224.50677038 236.05700144 220.90725711 233.23215573 217.25 230.48828125 C215.6226168 229.28959616 213.9936908 228.093003 212.36328125 226.8984375 C209.84805879 225.05420494 207.33428942 223.20820641 204.82568359 221.35498047 C202.36728892 219.53926618 199.90309679 217.73169841 197.4375 215.92578125 C196.68645996 215.36858398 195.93541992 214.81138672 195.16162109 214.23730469 C194.109021 213.47015137 194.109021 213.47015137 193.03515625 212.6875 C192.42293213 212.23721436 191.81070801 211.78692871 191.17993164 211.32299805 C186.66868417 208.61185609 183.80813886 209.47062055 178.90991211 211.11254883 Z M-41.09765625 347.22265625 C-42.46375317 349.76618698 -43.63152878 352.28120633 -44.68710327 354.96765137 C-45.93395114 357.98624601 -47.72584965 360.33584095 -49.7734375 362.86328125 C-52.56244228 366.64412431 -55.34850023 370.42712575 -58.1328125 374.21142578 C-59.42010181 375.95996568 -60.7098216 377.70671576 -62 379.453125 C-63.27732651 381.1919855 -64.54408917 382.93868889 -65.796875 384.6953125 C-67.1467125 386.57297108 -68.5388141 388.42041324 -69.953125 390.25 C-70.71109375 391.27738281 -71.4690625 392.30476563 -72.25 393.36328125 C-73.29027344 394.72839844 -73.29027344 394.72839844 -74.3515625 396.12109375 C-76.19906585 400.64350993 -75.04705507 403.70030789 -73.625 408.23828125 C-73.29822266 409.34067139 -73.29822266 409.34067139 -72.96484375 410.46533203 C-72.27559243 412.73294884 -71.54892674 414.98557013 -70.8125 417.23828125 C-69.03339936 422.76649247 -67.28768108 428.29754212 -65.67382812 433.87646484 C-65.06883968 435.96638101 -64.44964506 438.05166693 -63.828125 440.13671875 C-62.99941145 442.92263522 -62.22927825 445.7179578 -61.484375 448.52734375 C-61.09493579 449.88966245 -60.70435726 451.25165611 -60.3125 452.61328125 C-59.98636719 453.81726563 -59.66023437 455.02125 -59.32421875 456.26171875 C-57.35569383 459.71003136 -55.72572468 460.4816843 -51.9777832 461.61572266 C-50.81315552 461.92388916 -50.81315552 461.92388916 -49.625 462.23828125 C-48.80539795 462.4811084 -47.9857959 462.72393555 -47.14135742 462.97412109 C-7.34685557 474.55541266 32.15035819 474.56877546 72.375 465.23828125 C73.19983887 465.05426758 74.02467773 464.87025391 74.87451172 464.68066406 C76.99673328 464.18843604 79.08977408 463.63766715 81.1875 463.05078125 C82.30769531 462.74785156 83.42789063 462.44492187 84.58203125 462.1328125 C88.96204335 459.16175534 89.8079543 455.14900514 91.375 450.23828125 C91.72248291 449.20437256 92.06996582 448.17046387 92.42797852 447.10522461 C93.56505644 443.67929272 94.66233248 440.24270442 95.75 436.80078125 C96.53643374 434.32160678 97.32289217 431.84244015 98.109375 429.36328125 C98.68268555 427.55150391 98.68268555 427.55150391 99.26757812 425.703125 C100.26522215 422.58174847 101.28864278 419.47092247 102.328125 416.36328125 C102.61381348 415.49759521 102.89950195 414.63190918 103.19384766 413.73999023 C103.71571364 412.16095843 104.24610051 410.58470668 104.78662109 409.01196289 C106.08317542 405.04017564 106.84559504 402.21286243 105.375 398.23828125 C99.56197712 388.02100379 91.87502408 378.75391738 84.69018555 369.48120117 C84.0701062 368.68033081 84.0701062 368.68033081 83.4375 367.86328125 C82.81645386 367.06144409 82.81645386 367.06144409 82.18286133 366.2434082 C78.27676405 361.16964118 74.57371949 355.9625223 70.89453125 350.72265625 C70.2734549 349.90220825 70.2734549 349.90220825 69.63983154 349.06518555 C68.375 347.23828125 68.375 347.23828125 67.31964111 344.98364258 C65.36881679 341.48272332 63.45019227 338.84157583 59.45044518 337.6787796 C53.29876663 336.66946427 47.05800029 336.72159702 40.83984375 336.69140625 C38.79828608 336.65990856 36.75674623 336.6272356 34.71522522 336.59344482 C30.4370947 336.53511318 26.16058617 336.51437079 21.88208008 336.515625 C17.51115309 336.51188694 13.14943393 336.44260604 8.78051758 336.31054688 C-19.22025326 333.73293455 -19.22025326 333.73293455 -41.09765625 347.22265625 Z " fill="#090909" transform="translate(233.625,-0.23828125)"/>
<path d="M0 0 C0 3.51772653 -0.86862552 5.68116458 -2.98748779 8.48937988 C-7.60707067 11.9569041 -14.06681399 10.94671242 -19.6015625 10.859375 C-21.0445468 10.85901108 -22.48753347 10.86102022 -23.93051147 10.86529541 C-26.94872168 10.86658798 -29.96547258 10.84367443 -32.98339844 10.80273438 C-36.8522301 10.75156448 -40.71877511 10.75387802 -44.58782387 10.77334213 C-47.56482844 10.78363507 -50.5413067 10.76922656 -53.51823044 10.74695587 C-54.94476356 10.7385922 -56.37135413 10.73710365 -57.79790115 10.74260712 C-59.78936952 10.74588662 -61.78079916 10.71313649 -63.77197266 10.67871094 C-64.90494781 10.66870056 -66.03792297 10.65869019 -67.20523071 10.64837646 C-70 10 -70 10 -71.95175171 7.58258057 C-72.47063461 6.30420319 -72.47063461 6.30420319 -73 5 C-72.67 4.34 -72.34 3.68 -72 3 C-71.62933914 3.64834305 -71.25867828 4.2966861 -70.87678528 4.9646759 C-69.1407412 7.2503519 -69.1407412 7.2503519 -66.28788757 7.52812195 C-64.64624382 7.54646843 -64.64624382 7.54646843 -62.97143555 7.56518555 C-61.72972092 7.58747726 -60.48800629 7.60976898 -59.20866394 7.63273621 C-57.85135111 7.63553271 -56.49403446 7.63682295 -55.13671875 7.63671875 C-53.74289902 7.64703537 -52.34908464 7.65809868 -50.95527649 7.6698761 C-48.03229815 7.68931604 -45.10979825 7.69272837 -42.18676758 7.6862793 C-38.45014082 7.68029209 -34.71600635 7.72444904 -30.97989178 7.78216839 C-28.09977028 7.81924412 -25.22024455 7.82406467 -22.33991432 7.81989479 C-20.96321561 7.82275919 -19.58649141 7.8367751 -18.21002769 7.86237144 C-10.57931861 8.21747156 -10.57931861 8.21747156 -3.7850647 5.38613892 C-2.28795396 3.65573911 -1.08512975 2.0097876 0 0 Z " fill="#CECECE" transform="translate(433,375)"/>
<path d="M0 0 C0 4.38466158 -2.70242183 6.70033969 -5.375 9.9375 C-6.38607649 11.17311759 -7.39399438 12.41132784 -8.3984375 13.65234375 C-9.07398682 14.47206665 -9.07398682 14.47206665 -9.76318359 15.30834961 C-12.41228352 18.84213942 -12.41228352 18.84213942 -12.70228577 23.08654785 C-12.31803688 24.20096252 -12.31803688 24.20096252 -11.92602539 25.33789062 C-11.64235611 26.18557007 -11.35868683 27.03324951 -11.06642151 27.90661621 C-10.74672897 28.81399536 -10.42703644 29.72137451 -10.09765625 30.65625 C-9.62373695 32.06517517 -9.62373695 32.06517517 -9.14024353 33.50256348 C-8.12839808 36.50670144 -7.09721624 39.50366924 -6.0625 42.5 C-5.03291138 45.49678256 -4.00783967 48.49479156 -2.99546814 51.49743652 C-2.36493301 53.36630918 -1.7242561 55.23179679 -1.07252502 57.09338379 C-0.78570358 57.94106323 -0.49888214 58.78874268 -0.20336914 59.66210938 C0.18207314 60.77652405 0.18207314 60.77652405 0.57530212 61.91345215 C1.05674524 64.2787903 0.75495587 65.73086664 0 68 C-3.71946648 57.6574003 -7.35382995 47.32407186 -10.31323242 36.73461914 C-11.45334718 32.68942879 -12.7976761 28.83499586 -14.42285156 24.96582031 C-15.15093421 22.48590428 -15.26544632 20.57492969 -15 18 C-13.83837891 15.99536133 -13.83837891 15.99536133 -12.2265625 14.08203125 C-11.3603125 13.03692383 -11.3603125 13.03692383 -10.4765625 11.97070312 C-9.86554688 11.25849609 -9.25453125 10.54628906 -8.625 9.8125 C-8.02171875 9.08869141 -7.4184375 8.36488281 -6.796875 7.61914062 C-4.59978271 4.99483594 -2.42092794 2.42092794 0 0 Z " fill="#D6D6D6" transform="translate(82,103)"/>
<path d="M0 0 C4.58356537 4.44032895 8.85288997 9.15013702 13 14 C13.5775 14.65355469 14.155 15.30710937 14.75 15.98046875 C16.32253712 18.52109904 16.2400209 19.8111138 15.875 22.75 C15.78992188 23.54921875 15.70484375 24.3484375 15.6171875 25.171875 C14.98176403 28.0835623 14.01157997 30.75134947 12.93164062 33.52441406 C10.8879554 38.95496127 9.13574983 44.49244788 7.3125 50 C6.89677734 51.25167969 6.48105469 52.50335938 6.05273438 53.79296875 C5.03378554 56.8615273 4.01624684 59.93054577 3 63 C1.56413019 58.48619843 3.01736679 55.17893844 4.5625 50.875 C4.83263916 50.09108887 5.10277832 49.30717773 5.38110352 48.49951172 C6.53626677 45.14843749 7.71607052 41.80617353 8.89355469 38.46289062 C9.75006329 36.01979727 10.59403883 33.57262218 11.4375 31.125 C11.70828369 30.3707373 11.97906738 29.61647461 12.25805664 28.83935547 C13.5382123 25.12042493 14.31017076 22.73337793 13 19 C11.62711266 16.9754785 10.18046082 15.00017256 8.6875 13.0625 C7.90761719 12.04285156 7.12773437 11.02320312 6.32421875 9.97265625 C4.81390402 8.0409764 3.27599199 6.13045035 1.70703125 4.24609375 C0 2 0 2 0 0 Z " fill="#D8D8D8" transform="translate(416,102)"/>
<path d="M0 0 C1.43836751 0.11458693 2.87570966 0.24209116 4.3125 0.375 C5.51326172 0.47941406 5.51326172 0.47941406 6.73828125 0.5859375 C9 1 9 1 12 3 C14.04705225 3.59739945 16.11233108 4.13409983 18.1875 4.625 C19.27417969 4.88539063 20.36085937 5.14578125 21.48046875 5.4140625 C22.31191406 5.60742188 23.14335937 5.80078125 24 6 C23.67 7.32 23.34 8.64 23 10 C23 9.34 23 8.68 23 8 C22.26136719 7.82984375 21.52273437 7.6596875 20.76171875 7.484375 C13.63408603 5.78171305 6.83115453 3.64908945 0 1 C0 0.67 0 0.34 0 0 Z " fill="#AAAAAA" transform="translate(126,223)"/>
<path d="M0 0 C0.66 0.33 1.32 0.66 2 1 C1.24074219 1.86882812 0.48148438 2.73765625 -0.30078125 3.6328125 C-1.30501256 4.79659458 -2.30890065 5.96067289 -3.3125 7.125 C-3.81201172 7.69476563 -4.31152344 8.26453125 -4.82617188 8.8515625 C-7.85921653 12.38676686 -9.96391879 15.77885603 -12 20 C-14.1875 21.375 -14.1875 21.375 -16 22 C-14.49227028 17.22700947 -11.81047279 14.11740659 -8.5625 10.4375 C-7.5836692 9.31203752 -6.60577978 8.18575551 -5.62890625 7.05859375 C-5.17273926 6.53378418 -4.71657227 6.00897461 -4.24658203 5.46826172 C-2.74847816 3.70375003 -1.35386736 1.87705678 0 0 Z " fill="#B8B8B8" transform="translate(62,83)"/>
<path d="M0 0 C0.66 0.33 1.32 0.66 2 1 C-0.58231388 3.10542027 -3.16603004 5.20911269 -5.75 7.3125 C-6.47960937 7.90740234 -7.20921875 8.50230469 -7.9609375 9.11523438 C-8.66992188 9.69208984 -9.37890625 10.26894531 -10.109375 10.86328125 C-10.75874023 11.39219971 -11.40810547 11.92111816 -12.07714844 12.46606445 C-14.02279463 14.01818419 -16.0015431 15.51670952 -18 17 C-18.66 16.67 -19.32 16.34 -20 16 C-13.68153055 10.07139355 -7.22812938 4.78286859 0 0 Z " fill="#D9D9D9" transform="translate(123,66)"/>
<path d="M0 0 C-0.96421875 0.33773437 -1.9284375 0.67546875 -2.921875 1.0234375 C-4.19796475 1.47382212 -5.47400376 1.92435053 -6.75 2.375 C-7.38421875 2.59671875 -8.0184375 2.8184375 -8.671875 3.046875 C-11.2657908 3.96555351 -13.77571098 4.88311699 -16.21875 6.15625 C-19.07436486 7.50890967 -21.89986371 7.11923601 -25 7 C-21.06059243 4.37372829 -16.99044148 3.23035856 -12.5 1.8125 C-11.19869141 1.38420898 -11.19869141 1.38420898 -9.87109375 0.94726562 C-9.03707031 0.68236328 -8.20304687 0.41746094 -7.34375 0.14453125 C-6.58255859 -0.09934326 -5.82136719 -0.34321777 -5.03710938 -0.59448242 C-3 -1 -3 -1 0 0 Z " fill="#B1B1B1" transform="translate(406,185)"/>
<path d="M0 0 C-2.68112873 1.78741915 -4.02309829 2.30136036 -7 3.0625 C-9.80404618 4.04185437 -10.75478005 4.54666575 -12.1875 7.1953125 C-12.92386895 9.45398263 -13.53145533 11.67191867 -14 14 C-14.33 14 -14.66 14 -15 14 C-15.3190184 5.70552147 -15.3190184 5.70552147 -13 3 C-8.8062519 0.8135965 -4.76733895 -0.44693803 0 0 Z " fill="#9E9E9E" transform="translate(362,228)"/>
<path d="M0 0 C0.66 0.33 1.32 0.66 2 1 C0.42687016 2.8223088 -1.15736799 4.63236793 -2.75 6.4375 C-3.41515625 7.2119043 -3.41515625 7.2119043 -4.09375 8.00195312 C-6.52915356 10.74178213 -8.24061317 12.65743905 -12 13 C-8.19524578 8.43969176 -4.25030379 4.14910608 0 0 Z " fill="#7D7D7D" transform="translate(80,65)"/>
<path d="M0 0 C1.4391134 0.28359887 2.87625518 0.57721399 4.3125 0.875 C5.11300781 1.03742188 5.91351563 1.19984375 6.73828125 1.3671875 C9 2 9 2 12 4 C7.45194365 4.17835515 4.1205746 3.99785435 0 2 C0 1.34 0 0.68 0 0 Z " fill="#898989" transform="translate(142,199)"/>
<path d="M0 0 C0.66 0.33 1.32 0.66 2 1 C0.68 2.65 -0.64 4.3 -2 6 C-3.65 5.67 -5.3 5.34 -7 5 C-4.702779 3.25728062 -2.40133271 1.60088848 0 0 Z " fill="#717171" transform="translate(161,199)"/>
</svg>
